# Wavefront OBJ exported by MilkShape 3D

mtllib BoneBlade-OBJ.mtl

v -0.000058 -5.898500 104.665154
v 3.773242 7.120499 71.202248
v -0.000058 3.992299 110.842751
v 3.773242 9.611699 70.484047
v -0.000058 -16.709200 82.137550
v -3.773358 4.831100 70.090752
v -0.000058 -15.720901 77.448647
v -3.773358 3.650499 67.202553
v -0.382558 -0.146601 -111.050247
v 0.382442 -0.146601 -111.050247
v -0.000058 -3.372001 -110.986954
v 5.906442 12.111799 -71.184753
v -5.906458 12.111799 -71.184753
v 3.773242 17.892700 -49.470348
v -3.773358 17.892799 -49.470348
v 3.773242 7.371699 -43.347549
v 3.773242 5.075099 -38.849350
v 2.358242 -3.390100 -44.701649
v 1.886642 -5.717401 -32.169849
v 3.773242 3.650599 -33.811249
v -3.773358 3.650599 -33.811249
v 3.773242 3.650499 67.202553
v 3.773242 4.831100 70.090752
v -3.773358 7.120499 71.202248
v -3.773358 7.371699 -43.347549
v -3.773358 5.075099 -38.849350
v -0.000058 12.111799 114.359856
v 3.773242 12.111799 67.458549
v -3.773358 12.111799 67.458549
v 3.773242 11.655299 -47.283352
v -3.773358 11.655299 -47.283352
v -3.773358 9.611699 70.484047
v 5.906442 3.924599 -70.649353
v -5.906458 3.924599 -70.649353
v -0.000058 -15.085402 -50.908051
v -0.000058 -14.369902 -61.305851
v 0.998642 -11.392401 -53.174850
v 1.718542 -7.699301 -54.179253
v 2.274242 -3.655101 -54.218147
v 2.829942 1.074999 -50.732449
v 3.773242 -5.539901 -66.767250
v -2.830058 1.074999 -50.732449
v -2.274258 -3.655101 -54.218250
v -0.998658 -11.392401 -53.174850
v -1.718558 -7.699301 -54.179253
v -3.773358 -5.539901 -66.767250
v 0.471642 -13.340000 -35.526951
v -0.000058 -15.682001 -38.544949
v -0.471658 -13.340000 -35.526951
v -0.000058 -18.766300 85.078651
v -0.000058 -22.867001 88.621452
v -0.000058 -14.622501 97.685844
v -0.000058 -15.682001 73.207954
v 1.202442 -9.871401 -32.729450
v -1.202458 -9.871401 -32.729450
v -1.886658 -5.717401 -32.169849
v -2.358358 -3.390100 -44.701649
v -2.820858 -5.326401 -79.665352
v -0.000058 -12.454000 -81.479553
v 2.820742 -5.326401 -79.665352
v -1.655258 -3.805000 -96.097252
v 1.655142 -3.805000 -96.097252
v -0.000058 -8.455000 -98.800751
v 1.469642 10.145599 -70.439247
v 2.934542 7.909899 -70.439247
v 1.637142 10.401299 -77.667953
v 3.269742 7.909899 -77.667953
v -1.460258 10.145599 -70.439247
v -1.627858 10.401299 -77.667953
v -2.925158 7.909899 -70.439247
v -3.260358 7.909899 -77.667953
v 0.004742 5.674199 -70.439247
v 0.004742 5.418499 -77.667953
v 1.202942 9.738500 -84.896553
v 2.401142 7.909899 -84.896553
v -1.193558 9.738500 -84.896553
v -2.391758 7.909899 -84.896553
v 0.004742 6.081199 -84.896553
v 1.202942 9.738500 -92.125252
v 2.401142 7.909899 -92.125252
v -1.193558 9.738500 -92.125252
v -2.391758 7.909899 -92.125252
v 0.004742 6.081199 -92.125252
v 1.637242 10.401299 -99.353951
v 3.269742 7.909899 -99.353951
v -1.627858 10.401299 -99.353951
v -3.260358 7.909899 -99.353951
v 0.004742 5.418499 -99.353951
v 1.469642 10.145599 -106.582649
v 2.934542 7.909899 -106.582649
v -1.460258 10.145599 -106.582649
v -2.925158 7.909899 -106.582649
v 0.004742 5.674199 -106.582649
v 1.039042 17.028599 -49.937851
v 0.003142 14.894799 -37.069649
v 0.003142 14.190800 -48.906349
v 0.915742 22.867001 -32.508949
v 0.003142 13.456400 -32.171650
v 1.039042 19.181599 -30.444649
v 1.039042 16.041199 -27.658649
v 0.003142 11.530999 -28.919449
v 1.039042 13.038599 -24.030552
v 1.039042 11.058899 -19.498051
v 0.260242 7.090499 -27.796951
v 0.003142 5.783400 66.029243
v 0.003142 5.783499 -28.604649
v 0.260242 9.168599 -27.549049
v 1.039042 11.058899 71.305351
v -1.032658 11.058899 -19.498051
v -1.032758 11.058899 71.305351
v -0.999258 17.028599 -49.937851
v -0.880158 22.867001 -32.508949
v -0.999258 16.041199 -27.658649
v -0.999258 19.181599 -30.444649
v -0.999258 13.038599 -24.030552
v -0.253958 7.090499 -27.796951
v -0.253958 9.168599 -27.549049
# 117 vertices

vt 0.044500 0.415500
vt 0.152200 0.728600
vt 0.027600 0.653400
vt 0.154700 0.788500
vt 0.114100 0.174300
vt 0.156100 0.676800
vt 0.130500 0.198100
vt 0.166200 0.648400
vt 0.991700 0.553800
vt 0.991400 0.476300
vt 0.526900 0.833300
vt 0.526900 0.980400
vt 0.653000 0.859800
vt 0.653000 0.953800
vt 0.672400 0.734600
vt 0.651200 0.679400
vt 0.678800 0.475900
vt 0.619700 0.419900
vt 0.627400 0.648400
vt 0.341300 0.711800
vt 0.341300 0.804600
vt 0.649300 0.711800
vt 0.649300 0.804600
vt 0.185300 0.708900
vt 0.185300 0.804700
vt 0.211500 0.708900
vt 0.211500 0.804700
vt 0.304000 0.711800
vt 0.304000 0.804600
vt 0.322600 0.711800
vt 0.322600 0.804600
vt 0.353100 0.908900
vt 0.520000 0.833000
vt 0.520000 0.984800
vt 0.264000 0.711800
vt 0.264000 0.804600
vt 0.283200 0.711800
vt 0.283200 0.804600
vt 0.238200 0.708900
vt 0.238200 0.804700
vt 0.263100 0.708900
vt 0.821300 0.651000
vt 0.821300 0.852200
vt 0.990500 0.651000
vt 0.990500 0.852200
vt 0.708100 0.194600
vt 0.757100 0.211800
vt 0.718800 0.283400
vt 0.723500 0.372200
vt 0.723700 0.469500
vt 0.707200 0.583200
vt 0.801200 0.651700
vt 0.782900 0.424200
vt 0.803700 0.848600
vt 0.701300 0.987600
vt 0.547100 0.541300
vt 0.539200 0.513800
vt 0.531300 0.541300
vt 0.103900 0.124800
vt 0.088200 0.026200
vt 0.018100 0.848600
vt 0.165300 0.848600
vt 0.063500 0.224500
vt 0.169800 0.708900
vt 0.169800 0.804700
vt 0.145200 0.199000
vt 0.649800 0.199000
vt 0.635500 0.255300
vt 0.622300 0.320000
vt 0.559300 0.575700
vt 0.519000 0.575700
vt 0.570800 0.606200
vt 0.507600 0.606200
vt 0.299300 0.924100
vt 0.329800 0.917500
vt 0.299300 0.910900
vt 0.268600 0.928900
vt 0.268600 0.906100
vt 0.234900 0.932500
vt 0.234900 0.902500
vt 0.194800 0.936200
vt 0.194800 0.898800
vt 0.843700 0.429300
vt 0.852200 0.257900
vt 0.921200 0.465900
vt 0.691000 0.837600
vt 0.933900 0.354100
vt 0.282900 0.521100
vt 0.271100 0.521100
vt 0.282900 0.545200
vt 0.271100 0.545200
vt 0.294700 0.521100
vt 0.294700 0.545200
vt 0.235600 0.521100
vt 0.223800 0.521100
vt 0.235600 0.545200
vt 0.223800 0.545200
vt 0.247400 0.521100
vt 0.247400 0.545200
vt 0.259300 0.521100
vt 0.259300 0.545200
vt 0.282900 0.569300
vt 0.271100 0.569300
vt 0.294700 0.569300
vt 0.235600 0.569300
vt 0.223800 0.569300
vt 0.247400 0.569300
vt 0.259300 0.569300
vt 0.282900 0.593400
vt 0.271100 0.593400
vt 0.294700 0.593400
vt 0.235600 0.593400
vt 0.223800 0.593400
vt 0.247400 0.593400
vt 0.259300 0.593400
vt 0.282900 0.617500
vt 0.271100 0.617500
vt 0.294700 0.617500
vt 0.235600 0.617500
vt 0.223800 0.617500
vt 0.247400 0.617500
vt 0.259300 0.617500
vt 0.282900 0.641600
vt 0.271100 0.641600
vt 0.294700 0.641600
vt 0.235600 0.641600
vt 0.223800 0.641600
vt 0.247400 0.641600
vt 0.259300 0.641600
vt 0.198700 0.895000
vt 0.198700 0.926900
vt 0.227000 0.879100
vt 0.255200 0.926900
vt 0.227000 0.942800
vt 0.986700 0.169600
vt 0.897000 0.141700
vt 0.979500 0.132600
vt 0.865100 0.245800
vt 0.862800 0.123000
vt 0.850700 0.197700
vt 0.831300 0.156700
vt 0.840100 0.097800
vt 0.806000 0.117500
vt 0.774400 0.091700
vt 0.832300 0.039900
vt 0.163900 0.022800
vt 0.837900 0.022800
vt 0.830500 0.067000
vt 0.136700 0.091700
vt 0.083800 0.288700
vt 0.457300 0.219200
vt 0.083800 0.219200
vt 0.457300 0.288700
vt 0.530000 0.288600
vt 0.591600 0.288600
vt 0.530000 0.220400
vt 0.591600 0.220400
vt 0.498900 0.288600
vt 0.515500 0.288600
vt 0.498900 0.220400
vt 0.515500 0.220400
vt 0.479100 0.288700
vt 0.479100 0.220400
# 163 texture coordinates

vn -0.805245 -0.246859 0.539111
vn 0.762333 0.133442 -0.633278
vn 0.902250 -0.143267 0.406718
vn 0.752890 -0.312619 -0.579160
vn -0.000000 -0.896072 -0.443908
vn -0.928312 0.074574 -0.364246
vn 0.763629 -0.645435 0.016884
vn -0.774001 0.606405 -0.182198
vn -0.752107 0.597858 -0.277310
vn 0.867592 0.256925 -0.425763
vn 0.000000 -0.227570 -0.973762
vn 0.680235 0.268645 -0.681990
vn -0.669023 0.612900 -0.420431
vn 0.670491 0.728633 0.139772
vn -0.666634 0.510687 0.542953
vn 0.596776 0.606200 0.525718
vn 0.765004 0.581766 0.276255
vn 0.753090 -0.621706 -0.215261
vn 0.828775 -0.306113 -0.468430
vn 0.606327 0.780850 0.150472
vn -0.777634 0.626198 0.056220
vn 0.869011 0.489821 -0.069967
vn 0.943999 0.145495 -0.296137
vn -0.606378 -0.038710 -0.794234
vn -0.596670 0.670720 0.440589
vn -0.765758 0.600916 0.229163
vn 0.000000 0.957818 0.287376
vn 0.614281 -0.275612 -0.739390
vn -0.838239 0.275206 -0.470761
vn 0.750694 0.274483 0.600931
vn -0.752437 0.362651 0.549839
vn -0.839733 -0.375578 -0.392160
vn 0.735698 -0.295595 -0.609403
vn -0.742343 -0.218820 -0.633281
vn -0.000009 -0.024807 0.999692
vn -0.000004 -0.999124 -0.041838
vn 0.572679 0.169182 0.802132
vn 0.572621 -0.016849 0.819647
vn 0.739057 -0.378404 0.557319
vn 0.884924 -0.465269 -0.020835
vn 0.969769 -0.157159 -0.186680
vn -0.876704 -0.423579 0.227971
vn -0.750787 -0.267513 0.603950
vn -0.736871 0.118032 0.665650
vn -0.576581 0.057306 0.815028
vn -0.917268 0.002712 -0.398260
vn 0.881700 0.207588 -0.423689
vn -0.000011 0.541789 -0.840515
vn -0.584205 0.489756 -0.647182
vn -0.000000 -0.712939 -0.701226
vn 0.000000 -0.770282 -0.637704
vn 0.000000 -0.685004 0.728539
vn -0.921082 -0.389366 -0.000897
vn 0.739491 0.208313 -0.640124
vn -0.573370 0.153458 -0.804796
vn -0.801703 -0.524173 -0.287254
vn -0.753600 -0.587949 -0.293944
vn -0.820231 0.571338 -0.028169
vn -0.000000 -0.980619 -0.195925
vn 0.492851 0.870034 0.011777
vn -0.808766 0.587283 0.031556
vn 0.810299 0.581440 0.073099
vn -0.000000 -0.931768 -0.363055
vn 0.311603 0.949336 0.040801
vn 0.990356 0.130717 0.045916
vn 0.475299 0.879234 -0.032226
vn 0.984675 -0.169627 -0.040525
vn -0.623201 0.780929 0.042075
vn -0.474647 0.879499 -0.034524
vn -0.890614 -0.452881 0.041295
vn -0.985152 -0.168702 -0.031872
vn 0.246367 -0.968571 0.034265
vn -0.000277 -0.999606 -0.028070
vn 0.474162 0.878704 -0.055231
vn 0.984144 -0.168339 -0.055880
vn -0.474937 0.878387 -0.053581
vn -0.983580 -0.169454 -0.062102
vn 0.000350 -0.998954 -0.045733
vn 0.474937 0.878387 0.053581
vn 0.983581 -0.169444 0.062101
vn -0.474166 0.878701 0.055232
vn -0.984143 -0.168348 0.055879
vn -0.000331 -0.998954 0.045733
vn 0.474647 0.879499 0.034524
vn 0.985153 -0.168693 0.031871
vn -0.475307 0.879230 0.032225
vn -0.984672 -0.169644 0.040526
vn 0.000293 -0.999606 0.028069
vn 0.406962 0.509961 -0.757840
vn 0.804712 -0.409187 -0.430123
vn -0.288149 0.877880 -0.382488
vn -0.730919 0.096463 -0.675612
vn -0.188064 -0.739406 -0.646460
vn 0.785151 0.575891 -0.227787
vn -0.004159 -0.989086 -0.147279
vn -0.005149 -0.998223 0.059370
vn 0.667810 0.587716 0.456749
vn -0.003473 -0.827147 -0.561975
vn 0.760733 0.381006 0.525471
vn 0.603653 0.589394 0.536858
vn -0.002447 -0.976168 -0.217003
vn 0.795032 0.533437 0.288739
vn 0.635294 0.769155 0.069297
vn 0.995271 -0.097125 0.001374
vn -0.000004 -0.999203 -0.039911
vn 0.000000 -1.000000 -0.000001
vn 0.998421 0.055964 0.004768
vn 0.329961 0.943995 0.000000
vn -0.508285 0.847059 0.155361
vn -0.329961 0.943995 -0.000000
vn -0.963178 0.239707 -0.121771
vn -0.666812 0.743136 0.055776
vn -0.602288 0.557281 0.571565
vn -0.758319 0.337292 0.557841
vn -0.791835 0.497855 0.353750
vn -0.995271 -0.097125 0.001374
vn -0.998421 0.055964 0.004768
# 117 normals

g bksword.JPG
usemtl bksword.JPG
s 1
f 1/1/1 2/2/2 3/3/3
f 4/4/4 3/3/3 2/2/2
f 5/5/5 6/6/6 7/7/7
f 8/8/8 7/7/7 6/6/6
f 9/9/9 10/9/10 11/10/11
f 12/11/12 13/12/13 14/13/14
f 15/14/15 14/13/14 13/12/13
f 16/15/16 17/16/17 18/17/18
f 18/17/18 17/16/17 19/18/19
f 19/18/19 17/16/17 20/19/20
f 20/20/20 21/21/21 22/22/22
f 8/23/8 22/22/22 21/21/21
f 23/24/23 6/25/6 2/26/2
f 24/27/24 2/26/2 6/25/6
f 16/28/16 25/29/25 17/30/17
f 26/31/26 17/30/17 25/29/25
f 27/32/27 28/33/28 29/34/29
f 14/35/14 15/36/15 30/37/30
f 31/38/31 30/37/30 15/36/15
f 4/39/4 32/40/32 28/41/28
f 29/36/29 28/41/28 32/40/32
f 2/26/2 24/27/24 4/39/4
f 32/40/32 4/39/4 24/27/24
f 33/42/33 34/43/34 12/44/12
f 13/45/13 12/44/12 34/43/34
f 35/46/35 36/47/36 37/48/37
f 37/48/37 36/47/36 38/49/38
f 38/49/38 36/47/36 39/50/39
f 40/51/40 39/50/39 33/52/33
f 33/52/33 39/50/39 41/53/41
f 39/50/39 36/47/36 41/53/41
f 34/52/34 42/51/42 13/54/13
f 15/55/15 13/54/13 42/51/42
f 42/51/42 34/52/34 43/50/43
f 35/46/35 44/48/44 36/47/36
f 44/48/44 45/49/45 36/47/36
f 45/49/45 43/50/43 36/47/36
f 36/47/36 43/50/43 46/53/46
f 43/50/43 34/52/34 46/53/46
f 47/56/47 48/57/48 49/58/49
f 24/2/24 1/1/1 32/4/32
f 3/3/3 32/4/32 1/1/1
f 5/5/5 23/6/23 50/59/50
f 51/60/51 50/59/50 23/6/23
f 3/3/3 4/4/4 27/61/27
f 28/62/28 27/61/27 4/4/4
f 3/3/3 27/61/27 32/4/32
f 29/62/29 32/4/32 27/61/27
f 52/63/52 1/1/1 6/6/6
f 24/2/24 6/6/6 1/1/1
f 22/64/22 8/65/8 23/24/23
f 6/25/6 23/24/23 8/65/8
f 53/66/53 7/7/7 8/8/8
f 48/67/48 47/68/47 53/66/53
f 53/66/53 47/68/47 7/7/7
f 20/19/20 22/8/22 19/18/19
f 19/18/19 22/8/22 54/69/54
f 22/8/22 7/7/7 54/69/54
f 7/7/7 47/68/47 54/69/54
f 54/70/54 55/71/55 19/72/19
f 56/73/56 19/72/19 55/71/55
f 47/56/47 49/58/49 54/70/54
f 55/71/55 54/70/54 49/58/49
f 19/18/19 56/18/56 18/17/18
f 57/17/57 18/17/18 56/18/56
f 44/74/44 35/75/35 37/76/37
f 45/77/45 38/78/38 43/79/43
f 39/80/39 43/79/43 38/78/38
f 44/74/44 37/76/37 45/77/45
f 38/78/38 45/77/45 37/76/37
f 43/79/43 39/80/39 42/81/42
f 40/82/40 42/81/42 39/80/39
f 18/17/18 57/17/57 40/51/40
f 42/51/42 40/51/40 57/17/57
f 41/53/41 46/53/46 33/52/33
f 34/52/34 33/52/33 46/53/46
f 58/83/58 59/84/59 46/53/46
f 36/47/36 46/53/46 59/84/59
f 36/47/36 59/84/59 41/53/41
f 60/83/60 41/53/41 59/84/59
f 41/53/41 60/83/60 46/53/46
f 58/83/58 46/53/46 60/83/60
f 61/85/61 62/85/62 9/9/9
f 10/9/10 9/9/9 62/85/62
f 58/83/58 60/83/60 61/85/61
f 62/85/62 61/85/61 60/83/60
f 14/55/14 40/51/40 12/54/12
f 33/52/33 12/54/12 40/51/40
f 25/15/25 31/86/31 57/17/57
f 57/17/57 31/86/31 42/51/42
f 42/51/42 31/86/31 15/55/15
f 14/55/14 30/86/30 40/51/40
f 40/51/40 30/86/30 18/17/18
f 18/17/18 30/86/30 16/15/16
f 21/19/21 26/16/26 56/18/56
f 56/18/56 26/16/26 57/17/57
f 57/17/57 26/16/26 25/15/25
f 30/37/30 31/38/31 16/28/16
f 25/29/25 16/28/16 31/38/31
f 17/30/17 26/31/26 20/20/20
f 21/21/21 20/20/20 26/31/26
f 58/83/58 61/85/61 59/84/59
f 63/87/63 59/84/59 61/85/61
f 60/83/60 59/84/59 62/85/62
f 63/87/63 62/85/62 59/84/59
f 61/85/61 9/9/9 63/87/63
f 11/10/11 63/87/63 9/9/9
f 62/85/62 63/87/63 10/9/10
f 11/10/11 10/9/10 63/87/63
f 48/67/48 53/66/53 49/68/49
f 49/68/49 53/66/53 55/69/55
f 55/69/55 53/66/53 56/18/56
f 56/18/56 53/66/53 21/19/21
f 21/19/21 53/66/53 8/8/8
f 2/2/2 1/1/1 23/6/23
f 52/63/52 23/6/23 1/1/1
f 51/60/51 52/63/52 6/6/6
f 52/63/52 51/60/51 23/6/23
f 51/60/51 6/6/6 50/59/50
f 5/5/5 50/59/50 6/6/6
f 22/8/22 23/6/23 7/7/7
f 5/5/5 7/7/7 23/6/23
f 64/88/64 65/89/65 66/90/66
f 67/91/67 66/90/66 65/89/65
f 68/92/68 64/88/64 69/93/69
f 66/90/66 69/93/69 64/88/64
f 70/94/70 68/95/68 71/96/71
f 69/97/69 71/96/71 68/95/68
f 72/98/72 70/94/70 73/99/73
f 71/96/71 73/99/73 70/94/70
f 65/89/65 72/100/72 67/91/67
f 73/101/73 67/91/67 72/100/72
f 66/90/66 67/91/67 74/102/74
f 75/103/75 74/102/74 67/91/67
f 69/93/69 66/90/66 76/104/76
f 74/102/74 76/104/76 66/90/66
f 71/96/71 69/97/69 77/105/77
f 76/106/76 77/105/77 69/97/69
f 73/99/73 71/96/71 78/107/78
f 77/105/77 78/107/78 71/96/71
f 67/91/67 73/101/73 75/103/75
f 78/108/78 75/103/75 73/101/73
f 74/102/74 75/103/75 79/109/79
f 80/110/80 79/109/79 75/103/75
f 76/104/76 74/102/74 81/111/81
f 79/109/79 81/111/81 74/102/74
f 77/105/77 76/106/76 82/112/82
f 81/113/81 82/112/82 76/106/76
f 78/107/78 77/105/77 83/114/83
f 82/112/82 83/114/83 77/105/77
f 75/103/75 78/108/78 80/110/80
f 83/115/83 80/110/80 78/108/78
f 79/109/79 80/110/80 84/116/84
f 85/117/85 84/116/84 80/110/80
f 81/111/81 79/109/79 86/118/86
f 84/116/84 86/118/86 79/109/79
f 82/112/82 81/113/81 87/119/87
f 86/120/86 87/119/87 81/113/81
f 83/114/83 82/112/82 88/121/88
f 87/119/87 88/121/88 82/112/82
f 80/110/80 83/115/83 85/117/85
f 88/122/88 85/117/85 83/115/83
f 84/116/84 85/117/85 89/123/89
f 90/124/90 89/123/89 85/117/85
f 86/118/86 84/116/84 91/125/91
f 89/123/89 91/125/91 84/116/84
f 87/119/87 86/120/86 92/126/92
f 91/127/91 92/126/92 86/120/86
f 88/121/88 87/119/87 93/128/93
f 92/126/92 93/128/93 87/119/87
f 85/117/85 88/122/88 90/124/90
f 93/129/93 90/124/90 88/122/88
f 91/130/91 89/131/89 92/132/92
f 92/132/92 89/131/89 93/133/93
f 89/131/89 90/134/90 93/133/93
f 94/135/94 95/136/95 96/137/96
f 95/136/95 94/135/94 97/138/97
f 98/139/98 99/140/99 100/141/100
f 95/136/95 99/140/99 98/139/98
f 97/138/97 99/140/99 95/136/95
f 101/142/101 102/143/102 103/144/103
f 98/139/98 102/143/102 101/142/101
f 100/141/100 102/143/102 98/139/98
f 104/145/104 105/146/105 106/147/106
f 107/148/107 105/146/105 104/145/104
f 101/142/101 105/146/105 107/148/107
f 103/144/103 105/146/105 101/142/101
f 108/149/108 105/146/105 103/144/103
f 108/150/108 109/151/109 110/152/110
f 109/151/109 108/150/108 103/153/103
f 96/137/96 95/136/95 111/135/111
f 112/138/112 111/135/111 95/136/95
f 113/141/113 114/140/114 98/139/98
f 98/139/98 114/140/114 95/136/95
f 95/136/95 114/140/114 112/138/112
f 109/144/109 115/143/115 101/142/101
f 101/142/101 115/143/115 98/139/98
f 98/139/98 115/143/115 113/141/113
f 106/147/106 105/146/105 116/145/116
f 116/145/116 105/146/105 117/148/117
f 117/148/117 105/146/105 101/142/101
f 101/142/101 105/146/105 109/144/109
f 109/144/109 105/146/105 110/149/110
f 97/154/97 94/155/94 112/156/112
f 111/157/111 112/156/112 94/155/94
f 100/158/100 99/159/99 113/160/113
f 114/161/114 113/160/113 99/159/99
f 99/159/99 97/154/97 114/161/114
f 112/156/112 114/161/114 97/154/97
f 103/153/103 102/162/102 109/151/109
f 115/163/115 109/151/109 102/162/102
f 102/162/102 100/158/100 115/163/115
f 113/160/113 115/163/115 100/158/100
f 108/150/108 103/153/103 110/152/110
f 109/151/109 110/152/110 103/153/103
# 215 triangles in group

# 215 triangles total

