# Wavefront OBJ exported by MilkShape 3D

mtllib SwordDancer-OBJ.mtl

v -0.000400 -4.357300 6.803800
v -0.000400 -5.413300 10.163900
v -4.493000 0.091200 8.404700
v -0.000400 -11.557600 10.548000
v -0.000400 -16.165899 8.243800
v -1.383500 -19.253799 12.406500
v -0.000400 -14.629800 0.275400
v -2.474500 -18.485701 1.609700
v -0.000400 -10.021600 -10.765100
v -3.240900 -11.573400 -13.052400
v -0.000400 -3.589200 -14.701400
v -1.462800 -6.382600 -16.104401
v -0.000400 -6.282000 -17.311501
v -0.000400 -6.607300 -21.130400
v -1.830900 -8.335900 -22.357201
v -2.100300 0.935100 -26.198400
v -3.121800 -0.928100 42.389599
v -0.000400 -3.267400 26.598101
v -5.185000 -3.523500 26.598101
v -9.204600 18.000999 1.827400
v -6.885800 9.916000 8.853600
v -9.345800 9.916000 10.877600
v -0.000400 3.963700 -23.404100
v -0.000400 4.539800 10.005700
v -0.000400 7.995900 -28.204300
v -3.174800 3.195700 -31.189199
v -0.000400 3.387700 -38.956902
v -0.000400 -1.604600 -31.468500
v -0.000400 -6.788800 -28.972300
v -0.000400 -8.960100 -24.172100
v -0.000400 -14.277200 -18.027800
v -0.000400 -13.125200 -15.339600
v -0.000400 -22.341700 2.901300
v -0.000400 -22.341700 19.222200
v -0.000400 -19.269501 17.110100
v -0.000400 -19.269501 17.110100
v -0.000400 -12.549100 18.646200
v -0.144300 -12.034600 30.335699
v -2.225900 -11.781100 34.688702
v -0.000400 -19.653500 31.894800
v -2.241400 -3.104300 71.341698
v -0.000400 -12.165100 68.184700
v -2.022400 -9.111500 72.260300
v -0.000400 -20.229500 67.032700
v -9.816400 16.005501 10.172200
v -8.035600 7.723300 21.213200
v -6.863700 -4.741200 16.545200
v -0.000400 -8.997000 90.746002
v 0.008400 -7.004400 128.301697
v -1.382200 -2.108200 116.588997
v -0.000400 -9.285000 40.535301
v -0.000400 -13.125200 78.553299
v -9.418700 1.798900 18.397100
v -3.543200 -12.319500 15.088100
v -0.000400 -9.285000 22.486401
v -0.000400 -9.285000 63.192501
v -0.000400 -3.099700 -22.756300
v 4.492200 0.091200 8.404700
v 1.382700 -19.253799 12.406500
v 2.473700 -18.485701 1.609700
v 3.240100 -11.573400 -13.052400
v 1.462000 -6.382600 -16.104401
v 1.830100 -8.335900 -22.357201
v 2.099500 0.935100 -26.198400
v 3.121000 -0.928100 42.389599
v 5.184200 -3.523500 26.598101
v 9.203800 18.000999 1.827400
v 9.345000 9.916000 10.877600
v 6.885000 9.916000 8.853600
v 3.174000 3.195700 -31.189199
v 2.225100 -11.781100 34.688702
v 0.143500 -12.034600 30.335699
v 2.240600 -3.104300 71.341698
v 2.021600 -9.111500 72.260300
v 9.815500 16.005501 10.172200
v 8.034800 7.723300 21.213200
v 6.862900 -4.741200 16.545200
v 1.378000 -2.108200 116.588997
v -0.009200 -7.004400 128.301697
v 9.417900 1.798900 18.397100
v 3.542400 -12.319500 15.088100
v 4.201900 8.092000 19.106501
v 3.389700 -3.112200 11.960800
v -3.373000 -3.112200 11.960800
v -4.185100 8.092000 19.106501
v 5.282200 -3.684800 36.035301
v -5.265400 -3.684800 36.035301
v 4.399600 -1.741200 39.742699
v -4.382800 -1.741200 39.742699
v 2.799400 -3.104300 71.341698
v -2.782700 -3.104300 71.341698
v 2.216000 -7.242700 73.733498
v -2.199200 -7.242700 73.733498
v 2.306800 -3.882200 80.841698
v -2.290100 -3.882200 80.841797
v 1.390100 -2.108200 116.588997
v -1.382100 -2.108200 116.588997
v 0.008400 20.372999 128.262497
v 0.008400 15.380800 134.982895
v -0.999300 15.482000 139.675400
v 0.008400 12.500600 135.366898
v -3.187900 7.800100 131.923599
v 0.008400 9.396000 96.976700
v 0.008400 10.654100 34.177601
v -1.871800 9.615700 34.177601
v 1.808300 13.647900 19.584801
v -1.791500 13.647900 19.584801
v 3.204600 7.800100 131.923599
v 1.888600 9.615700 34.177601
v 0.008400 16.992399 171.455597
v 0.008400 15.243100 162.056305
v -2.114400 10.192100 151.995407
v 0.008400 16.148800 149.767700
v 0.008400 18.644899 143.431305
v 0.008400 14.420700 145.927505
v 0.008400 18.836901 139.399094
v 0.008400 14.612700 125.190399
v 0.008400 11.348600 126.918503
v 0.008400 17.108900 113.093697
v -3.365800 9.334000 119.759003
v 0.008400 18.068899 104.453300
v -0.209300 13.820600 109.542099
v 0.008400 10.388500 111.749702
v 0.008400 10.196500 106.432899
v -3.560400 6.929400 103.297096
v 0.008400 14.228700 95.531502
v 0.008400 3.743700 160.983795
v 0.008400 -7.004400 128.301697
v 0.008400 -5.088800 148.887207
v 2.131100 10.192100 151.995407
v 1.016100 15.482000 139.675400
v 3.386000 9.334000 119.759003
v 0.226000 13.820600 109.542099
v 3.577000 6.929400 103.297096
# 134 vertices

vt 0.714400 0.460300
vt 0.694700 0.441200
vt 0.705000 0.541000
vt 0.692400 0.329800
vt 0.706000 0.246200
vt 0.681500 0.190300
vt 0.752700 0.274100
vt 0.744900 0.204200
vt 0.817500 0.357600
vt 0.831000 0.329500
vt 0.840600 0.474300
vt 0.848900 0.423600
vt 0.858200 0.429100
vt 0.877500 0.424100
vt 0.885600 0.388200
vt 0.908100 0.556300
vt 0.505500 0.522500
vt 0.598200 0.480100
vt 0.598200 0.475500
vt 0.743600 0.865700
vt 0.718100 0.705400
vt 0.690500 0.719100
vt 0.183000 0.841700
vt 0.033100 0.607600
vt 0.186800 0.667200
vt 0.891700 0.611200
vt 0.716600 0.619700
vt 0.919900 0.684300
vt 0.937400 0.597300
vt 0.983000 0.600800
vt 0.939100 0.510300
vt 0.924400 0.416300
vt 0.896200 0.376900
vt 0.860200 0.280500
vt 0.844400 0.301400
vt 0.737300 0.134300
vt 0.641500 0.134300
vt 0.653900 0.190000
vt 0.644900 0.311800
vt 0.576300 0.321200
vt 0.550700 0.325700
vt 0.567100 0.183000
vt 0.335600 0.483100
vt 0.354100 0.318800
vt 0.330200 0.374200
vt 0.360900 0.172600
vt 0.171900 0.949800
vt 0.242400 0.985200
vt 0.078600 0.802700
vt 0.181900 0.541900
vt 0.657200 0.453400
vt 0.694600 0.829500
vt 0.221700 0.376200
vt 0.013000 0.428400
vt 0.081700 0.517200
vt 0.516400 0.371000
vt 0.293200 0.301400
vt 0.646400 0.572000
vt 0.629800 0.679400
vt 0.665800 0.316000
vt 0.622400 0.371000
vt 0.383400 0.371000
vt 0.885600 0.478600
vt 0.008400 0.613300
vt 0.070000 0.075400
vt 0.186800 0.091600
vt 0.186800 0.226800
vt 0.070000 0.243000
vt 0.876000 0.022400
vt 0.736300 0.019800
vt 0.736300 0.244400
vt 0.876000 0.241800
vt 0.709500 0.038600
vt 0.709500 0.225600
vt 0.507100 0.072600
vt 0.507100 0.191500
vt 0.476500 0.085100
vt 0.476500 0.179100
vt 0.426200 0.083100
vt 0.426200 0.181100
vt 0.209500 0.110800
vt 0.209500 0.153500
vt 0.269600 0.818200
vt 0.227900 0.722700
vt 0.198800 0.724700
vt 0.225500 0.667700
vt 0.246900 0.577800
vt 0.460900 0.637800
vt 0.848800 0.671200
vt 0.853300 0.612500
vt 0.844300 0.754800
vt 0.942800 0.696500
vt 0.942500 0.806100
vt 0.021000 0.123200
vt 0.021000 0.195200
vt 0.019400 0.770500
vt 0.059900 0.737400
vt 0.122300 0.623500
vt 0.136100 0.737400
vt 0.175500 0.785200
vt 0.160000 0.704400
vt 0.200500 0.788800
vt 0.288600 0.708100
vt 0.277900 0.645600
vt 0.363700 0.755800
vt 0.322300 0.607100
vt 0.417300 0.774100
vt 0.385700 0.692900
vt 0.372000 0.627300
vt 0.405000 0.623600
vt 0.424400 0.561100
vt 0.455600 0.700700
vt 0.079000 0.517100
vt 0.947700 0.593600
vt 0.995000 0.369100
vt 0.841700 0.358200
vt 0.818700 0.395400
vt 0.622700 0.369300
vt 0.563800 0.354400
vt 0.607900 0.290200
vt 0.354400 0.405300
vt 0.281700 0.311600
vt 0.154000 0.348300
# 123 texture coordinates

vn 0.000000 -0.987500 -0.157600
vn 0.000000 -0.646600 -0.762800
vn -0.923700 -0.006100 -0.383000
vn 0.000000 0.004100 -1.000000
vn 0.000000 0.998400 -0.057100
vn -0.980600 -0.195600 -0.010000
vn 0.000000 0.924300 0.381700
vn -0.997000 -0.075300 -0.020000
vn 0.000000 0.837800 0.545900
vn -0.993100 -0.082000 0.084400
vn 0.000000 -0.790500 0.612500
vn -0.942100 0.318800 0.104400
vn 0.000000 0.169400 -0.985500
vn 0.000000 0.865500 0.500900
vn -0.976600 -0.131800 -0.169700
vn -0.998700 0.020800 0.046900
vn -0.969800 -0.218600 0.107800
vn 0.175800 0.932700 0.314900
vn -0.906600 0.033300 0.420700
vn -0.044600 0.567000 -0.822500
vn 0.578100 0.069100 -0.813100
vn -0.898000 -0.239300 -0.369100
vn 0.000000 0.977200 0.212200
vn 0.000000 0.975100 0.221600
vn -0.860200 0.496400 0.116600
vn -0.989200 0.071700 -0.128100
vn -0.925600 0.027100 -0.377600
vn -0.890900 -0.372900 -0.259200
vn -0.921600 -0.230700 -0.312200
vn -0.620100 -0.679800 -0.391600
vn -0.742400 -0.643000 -0.188000
vn -0.353600 -0.923200 0.150500
vn -0.838400 -0.540100 -0.072800
vn -0.983300 -0.081900 0.162300
vn 0.000000 -0.187700 -0.982200
vn -0.911000 -0.175800 -0.373200
vn 0.000000 -0.505700 0.862700
vn -0.839600 -0.420000 -0.344500
vn -0.923200 -0.363900 0.123400
vn -0.965600 -0.255200 -0.050000
vn -0.985000 -0.167300 -0.042100
vn -0.932400 -0.041700 -0.359000
vn -0.988300 -0.118900 -0.096000
vn -0.986600 -0.140300 -0.083300
vn -0.277900 0.911900 0.301900
vn -0.227800 0.727200 0.647500
vn -0.863800 -0.484200 -0.139300
vn -0.964300 -0.261900 0.039300
vn -0.969700 -0.243900 0.013200
vn -0.968800 -0.247600 0.014200
vn -0.864600 -0.390900 0.315600
vn -0.949700 -0.288800 0.120900
vn -0.980800 -0.169500 0.096800
vn -0.962400 -0.271700 -0.006500
vn -0.764800 -0.625700 0.153200
vn -0.954300 -0.296400 -0.037600
vn 0.000000 -0.759200 0.650800
vn 0.923700 -0.006100 -0.383000
vn 0.980600 -0.195600 -0.010000
vn 0.997000 -0.075300 -0.020000
vn 0.993100 -0.082000 0.084400
vn 0.942100 0.318800 0.104400
vn 0.976600 -0.131800 -0.169700
vn 0.998700 0.020800 0.046900
vn 0.969800 -0.218600 0.107800
vn 0.908200 0.043000 0.416300
vn -0.175800 0.932700 0.314900
vn 0.044600 0.567000 -0.822500
vn 0.898000 -0.239300 -0.369100
vn -0.578100 0.069100 -0.813100
vn 0.989200 0.071700 -0.128100
vn 0.860200 0.496400 0.116600
vn 0.925600 0.027100 -0.377600
vn 0.890900 -0.372900 -0.259200
vn 0.921600 -0.230700 -0.312200
vn 0.620100 -0.679800 -0.391600
vn 0.742400 -0.643000 -0.188000
vn 0.353600 -0.923200 0.150500
vn 0.838400 -0.540100 -0.072800
vn 0.983300 -0.081900 0.162300
vn 0.911000 -0.175800 -0.373200
vn 0.763500 -0.631100 0.137400
vn 0.920800 -0.366300 0.134300
vn 0.777700 -0.528000 -0.341100
vn 0.965600 -0.255200 -0.050000
vn 0.954300 -0.296400 -0.037600
vn 0.985000 -0.167300 -0.042000
vn 0.932400 -0.041700 -0.359000
vn 0.988300 -0.118900 -0.096000
vn 0.986600 -0.140300 -0.083300
vn 0.277900 0.911900 0.301900
vn 0.227800 0.727200 0.647500
vn 0.863800 -0.484200 -0.139300
vn 0.964300 -0.261700 0.039300
vn 0.968900 -0.247100 0.014200
vn 0.969900 -0.243300 0.013100
vn 0.864600 -0.390900 0.315600
vn 0.949700 -0.288800 0.120900
vn 0.980800 -0.169500 0.096800
vn 0.962400 -0.271700 -0.006500
vn 0.000000 0.350800 -0.936400
vn 0.000000 -0.478600 -0.878000
vn 0.000000 -0.976400 0.216100
vn 0.000000 -0.971100 0.238600
vn 0.000000 -0.870700 -0.491800
vn 0.000000 -0.944900 -0.327300
vn 0.000000 -0.969800 0.244000
vn 0.000000 -0.998800 0.049600
vn -0.943900 -0.265200 -0.197000
vn -0.845300 -0.275000 -0.458000
vn 0.000000 -0.132200 -0.991200
vn 0.783800 -0.082100 -0.615500
vn 0.000000 0.854700 -0.519200
vn 0.000000 0.989300 0.145900
vn -0.804900 0.587200 0.085900
vn 0.028200 0.720900 -0.692500
vn -0.028200 0.720900 -0.692500
vn -0.783800 -0.082100 -0.615500
vn 0.804900 0.587200 0.085900
vn -0.994600 0.047500 0.091900
vn -0.850200 0.520000 -0.081700
vn -0.993700 0.086800 0.070700
vn -0.923000 0.369300 0.108000
vn -0.984800 0.115900 -0.129700
vn -0.961200 0.239100 -0.137600
vn -0.951200 0.293500 0.095400
vn -0.942000 0.330500 0.059000
vn -0.956000 0.290500 0.040100
vn -0.872400 0.447300 -0.197000
vn -0.991400 0.130200 0.012600
vn -0.856400 0.505500 0.104900
vn -0.948100 0.202300 -0.245400
vn -0.909600 0.246100 -0.334800
vn -0.886300 0.455700 0.082900
vn -0.972600 0.227300 0.049300
vn -0.981300 0.129000 -0.142700
vn -0.767500 -0.464900 -0.441300
vn -0.869600 0.396500 -0.294300
vn -0.704800 0.706300 0.066300
vn -0.968000 0.249300 0.029000
vn -0.948200 0.227600 -0.221800
vn -0.981600 -0.135800 0.134400
vn -0.973800 0.211100 0.084700
vn -0.996600 -0.021900 -0.078900
vn -0.976600 0.207200 0.058200
vn -0.933100 0.327700 0.148200
vn -0.976700 0.211500 0.035500
vn -0.982300 -0.183000 0.040500
vn -0.983400 -0.177700 0.036300
vn -0.992400 -0.115600 0.042000
vn -0.981600 -0.189500 0.024800
vn -0.976100 -0.216300 0.022800
vn -0.982500 -0.172600 0.069400
vn 0.994600 0.047500 0.091900
vn 0.993700 0.086800 0.070700
vn 0.850200 0.520000 -0.081700
vn 0.923000 0.369300 0.108000
vn 0.984800 0.115900 -0.129700
vn 0.961200 0.239100 -0.137600
vn 0.955300 0.292800 0.041700
vn 0.951200 0.293500 0.095400
vn 0.996700 0.031000 -0.074700
vn 0.976500 0.044800 -0.210700
vn 0.991400 0.130100 0.012500
vn 0.856400 0.505500 0.104900
vn 0.948100 0.202300 -0.245400
vn 0.909600 0.246200 -0.334700
vn 0.972600 0.227000 0.049400
vn 0.886100 0.456100 0.083000
vn 0.981300 0.129100 -0.142900
vn 0.767200 -0.465300 -0.441600
vn 0.869500 0.396500 -0.294600
vn 0.968100 0.249000 0.029100
vn 0.704800 0.706300 0.066300
vn 0.948200 0.227600 -0.221800
vn 0.981600 -0.135800 0.134400
vn 0.973800 0.211100 0.084700
vn 0.976600 0.207200 0.058200
vn 0.996600 -0.021900 -0.078900
vn 0.933100 0.327700 0.148200
vn 0.976700 0.211500 0.035500
vn 0.982300 -0.183000 0.040500
vn 0.983400 -0.177800 0.036300
vn 0.992400 -0.115600 0.042000
vn 0.981500 -0.190100 0.024600
vn 0.976100 -0.216200 0.022400
vn 0.982500 -0.172600 0.069400
# 187 normals

g swordmagum_06.jpg
usemtl swordmagum_06.jpg
s 1
f 1/1/1 2/2/2 3/3/3
f 4/4/4 5/5/5 6/6/6
f 5/5/5 7/7/7 8/8/8
f 5/5/5 8/8/8 6/6/6
f 7/7/7 9/9/9 10/10/10
f 7/7/7 10/10/10 8/8/8
f 9/9/9 11/11/11 12/12/12
f 11/11/11 1/1/1 3/3/3
f 13/13/13 14/14/14 15/15/15
f 13/13/13 15/15/15 12/12/12
f 14/14/14 16/16/16 15/15/15
f 17/17/17 18/18/18 19/19/19
f 20/20/20 21/21/21 22/22/22
f 21/23/21 18/24/18 3/25/3
f 21/21/21 3/3/3 22/22/22
f 3/3/3 23/26/23 16/16/16
f 24/27/24 23/26/23 3/3/3
f 23/26/23 25/28/25 26/29/26
f 23/26/23 26/29/26 16/16/16
f 25/28/25 27/30/27 26/29/26
f 27/30/27 28/31/28 26/29/26
f 28/31/28 29/32/29 16/16/16
f 28/31/28 16/16/16 26/29/26
f 29/32/29 30/33/30 15/15/15
f 29/32/29 15/15/15 16/16/16
f 15/15/15 31/34/31 10/10/10
f 30/33/30 31/34/31 15/15/15
f 31/34/31 32/35/32 10/10/10
f 32/35/32 33/36/33 8/8/8
f 32/35/32 8/8/8 10/10/10
f 33/36/33 34/37/34 6/6/6
f 6/6/6 8/8/8 33/36/33
f 34/37/34 35/38/35 36/38/36
f 35/38/35 37/39/37 35/38/36
f 19/19/19 38/40/38 39/41/39
f 38/40/38 40/42/40 39/41/39
f 41/43/41 42/44/42 43/45/43
f 42/44/42 44/46/44 43/45/43
f 45/47/45 21/23/21 20/48/20
f 46/49/46 18/24/18 21/23/21
f 21/23/21 45/47/45 46/49/46
f 18/24/18 24/50/24 3/25/3
f 47/51/47 3/3/3 2/2/2
f 45/52/45 20/20/20 22/22/22
f 48/53/48 49/54/49 50/55/50
f 48/53/48 50/55/50 41/43/41
f 12/12/12 15/15/15 10/10/10
f 12/12/12 10/10/10 9/9/9
f 39/41/39 40/42/40 51/56/51
f 43/45/43 44/46/44 52/57/52
f 53/58/53 46/59/46 45/52/45
f 45/52/45 22/22/22 53/58/53
f 53/58/53 22/22/22 47/51/47
f 16/16/16 12/12/12 11/11/11
f 17/17/17 39/41/39 51/56/51
f 48/53/48 43/45/43 52/57/52
f 41/43/41 43/45/43 48/53/48
f 54/60/54 47/51/47 2/2/2
f 54/60/54 2/2/2 4/4/4
f 54/60/54 4/4/4 6/6/6
f 3/3/3 16/16/16 11/11/11
f 47/51/47 22/22/22 3/3/3
f 37/39/37 55/61/55 47/51/47
f 55/61/55 38/40/38 19/19/19
f 51/56/51 56/62/56 41/43/41
f 19/19/19 39/41/39 17/17/17
f 19/19/19 47/51/47 55/61/55
f 51/56/51 41/43/41 17/17/17
f 56/62/56 42/44/42 41/43/41
f 35/38/36 54/60/54 6/6/6
f 6/6/6 34/37/34 35/38/36
f 54/60/54 35/38/36 37/39/37
f 37/39/37 47/51/47 54/60/54
f 12/12/12 16/16/16 57/63/57
f 57/63/57 13/13/13 12/12/12
f 14/14/14 57/63/57 16/16/16
f 19/19/19 53/58/53 47/51/47
f 19/19/19 46/59/46 53/58/53
f 18/24/18 46/49/46 19/64/19
f 1/1/1 58/3/58 2/2/2
f 4/4/4 59/6/59 5/5/5
f 5/5/5 60/8/60 7/7/7
f 5/5/5 59/6/59 60/8/60
f 7/7/7 61/10/61 9/9/9
f 7/7/7 60/8/60 61/10/61
f 9/9/9 62/12/62 11/11/11
f 11/11/11 58/3/58 1/1/1
f 13/13/13 63/15/63 14/14/14
f 13/13/13 62/12/62 63/15/63
f 14/14/14 63/15/63 64/16/64
f 65/17/65 66/19/66 18/18/67
f 67/20/68 68/22/69 69/21/70
f 69/23/70 58/25/58 18/24/67
f 69/21/70 68/22/69 58/3/58
f 58/3/58 64/16/64 23/26/23
f 24/27/24 58/3/58 23/26/23
f 23/26/23 70/29/71 25/28/72
f 23/26/23 64/16/64 70/29/71
f 25/28/72 70/29/71 27/30/73
f 27/30/73 70/29/71 28/31/74
f 28/31/74 64/16/64 29/32/75
f 28/31/74 70/29/71 64/16/64
f 29/32/75 63/15/63 30/33/76
f 29/32/75 64/16/64 63/15/63
f 63/15/63 61/10/61 31/34/77
f 30/33/76 63/15/63 31/34/77
f 31/34/77 61/10/61 32/35/78
f 32/35/78 60/8/60 33/36/79
f 32/35/78 61/10/61 60/8/60
f 33/36/79 59/6/59 34/37/80
f 59/6/59 33/36/79 60/8/60
f 34/37/80 35/38/81 35/38/35
f 35/38/35 35/38/81 37/39/37
f 55/61/82 71/41/83 72/40/84
f 72/40/84 71/41/83 40/42/85
f 56/62/86 73/43/87 42/44/88
f 42/44/88 74/45/89 44/46/90
f 75/47/91 67/48/68 69/23/70
f 76/49/92 69/23/70 18/24/67
f 69/23/70 76/49/92 75/47/91
f 18/24/67 58/25/58 24/50/24
f 77/51/93 2/2/2 58/3/58
f 75/52/91 68/22/69 67/20/68
f 48/53/94 78/55/95 79/54/96
f 48/53/94 73/43/87 78/55/95
f 62/12/62 61/10/61 63/15/63
f 62/12/62 9/9/9 61/10/61
f 71/41/83 51/56/97 40/42/85
f 74/45/89 52/57/98 44/46/90
f 80/58/99 75/52/91 76/59/92
f 75/52/91 80/58/99 68/22/69
f 80/58/99 77/51/93 68/22/69
f 64/16/64 11/11/11 62/12/62
f 55/61/82 66/19/66 71/41/83
f 48/53/94 52/57/98 74/45/89
f 73/43/87 48/53/94 74/45/89
f 81/60/100 2/2/2 77/51/93
f 81/60/100 4/4/4 2/2/2
f 81/60/100 59/6/59 4/4/4
f 58/3/58 11/11/11 64/16/64
f 77/51/93 58/3/58 68/22/69
f 37/39/37 77/51/93 55/61/82
f 55/61/82 77/51/93 66/19/66
f 65/17/65 71/41/83 66/19/66
f 51/56/97 65/17/65 73/43/87
f 71/41/83 65/17/65 51/56/97
f 56/62/86 51/56/97 73/43/87
f 42/44/88 73/43/87 74/45/89
f 35/38/81 59/6/59 81/60/100
f 59/6/59 35/38/81 34/37/80
f 81/60/100 37/39/37 35/38/81
f 37/39/37 81/60/100 77/51/93
f 62/12/62 57/63/57 64/16/64
f 57/63/57 62/12/62 13/13/13
f 14/14/14 64/16/64 57/63/57
f 66/19/66 77/51/93 80/58/99
f 66/19/66 80/58/99 76/59/92
f 18/24/67 66/64/66 76/49/92
# 158 triangles in group

g swordmagum_06e.jpg
usemtl swordmagum_06e.jpg
f 82/65/101 83/66/102 84/67/102
f 82/65/101 84/67/102 85/68/101
f 83/69/102 86/70/103 87/71/103
f 83/69/102 87/71/103 84/72/102
f 86/70/103 88/73/104 89/74/104
f 86/70/103 89/74/104 87/71/103
f 88/73/104 90/75/105 91/76/105
f 88/73/104 91/76/105 89/74/104
f 90/75/105 92/77/106 93/78/106
f 90/75/105 93/78/106 91/76/105
f 92/77/106 94/79/107 95/80/107
f 92/77/106 95/80/107 93/78/106
f 94/79/107 96/81/108 97/82/108
f 94/79/107 97/82/108 95/80/107
f 98/83/109 99/84/110 100/85/109
f 99/84/110 101/86/111 102/87/112
f 103/88/113 104/89/114 105/90/115
f 104/91/114 106/92/116 107/93/117
f 104/89/114 107/92/117 105/90/115
f 106/94/116 82/65/101 85/68/101
f 106/94/116 85/68/101 107/95/117
f 99/84/110 108/87/118 101/86/111
f 103/88/113 109/90/119 104/89/114
f 104/89/114 109/90/119 106/92/116
f 110/96/120 111/97/121 112/98/122
f 111/97/121 113/99/123 112/98/122
f 113/99/123 114/100/124 112/98/122
f 114/100/124 115/101/125 112/98/122
f 115/101/125 116/102/126 100/85/127
f 115/101/125 100/85/127 112/98/122
f 116/102/126 98/83/128 100/85/127
f 99/84/129 102/87/130 100/85/127
f 101/86/131 117/103/132 102/87/130
f 117/103/132 118/104/133 102/87/130
f 118/104/133 119/105/134 120/106/135
f 118/104/133 120/106/135 102/87/130
f 119/105/134 121/107/136 120/106/135
f 121/107/136 122/108/137 120/106/135
f 122/108/137 123/109/138 120/106/135
f 123/109/138 124/110/139 125/111/140
f 123/109/138 125/111/140 120/106/135
f 124/110/139 126/112/141 125/111/140
f 126/112/141 103/88/113 125/111/140
f 103/88/113 105/90/115 125/111/140
f 127/113/142 110/96/120 112/98/122
f 85/114/143 84/115/144 87/116/145
f 107/92/146 85/114/143 87/116/145
f 105/90/115 107/92/146 87/116/145
f 105/90/115 87/116/145 89/117/147
f 125/111/140 105/90/115 89/117/147
f 125/111/140 89/117/147 91/118/148
f 95/119/149 91/118/148 93/120/150
f 125/111/140 91/118/148 95/119/149
f 125/111/140 95/119/149 97/121/151
f 120/106/135 125/111/140 97/121/151
f 102/87/130 120/106/135 97/121/151
f 102/87/130 97/121/151 128/122/152
f 102/87/130 128/122/152 129/123/153
f 129/123/153 127/113/142 112/98/122
f 102/87/130 129/123/153 112/98/122
f 102/87/130 112/98/122 100/85/127
f 110/96/154 130/98/155 111/97/156
f 111/97/156 130/98/155 113/99/157
f 113/99/157 130/98/155 114/100/158
f 114/100/158 130/98/155 115/101/159
f 115/101/159 131/85/160 116/102/161
f 115/101/159 130/98/155 131/85/160
f 116/102/161 131/85/160 98/83/162
f 98/83/162 131/85/160 99/84/163
f 99/84/163 131/85/160 108/87/164
f 101/86/165 108/87/164 117/103/166
f 117/103/166 108/87/164 118/104/167
f 118/104/167 132/106/168 119/105/169
f 118/104/167 108/87/164 132/106/168
f 119/105/169 132/106/168 121/107/170
f 121/107/170 132/106/168 133/108/171
f 133/108/171 132/106/168 123/109/172
f 123/109/172 134/111/173 124/110/174
f 123/109/172 132/106/168 134/111/173
f 124/110/174 134/111/173 126/112/175
f 126/112/175 134/111/173 103/88/113
f 103/88/113 134/111/173 109/90/119
f 127/113/176 130/98/155 110/96/154
f 82/114/177 86/116/178 83/115/179
f 106/92/180 86/116/178 82/114/177
f 109/90/119 86/116/178 106/92/180
f 109/90/119 88/117/181 86/116/178
f 134/111/173 88/117/181 109/90/119
f 134/111/173 90/118/182 88/117/181
f 94/119/183 92/120/184 90/118/182
f 134/111/173 94/119/183 90/118/182
f 134/111/173 96/121/185 94/119/183
f 132/106/168 96/121/185 134/111/173
f 108/87/164 96/121/185 132/106/168
f 108/87/164 128/122/186 96/121/185
f 108/87/164 129/123/187 128/122/186
f 129/123/187 130/98/155 127/113/176
f 108/87/164 130/98/155 129/123/187
f 108/87/164 131/85/160 130/98/155
# 99 triangles in group

# 257 triangles total

