# Wavefront OBJ exported by MilkShape 3D

mtllib boe-OBJ.mtl

v -1.568750 7.659699 -108.969101
v 1.877350 11.843299 -108.969101
v 1.877350 7.616699 -108.969101
v -1.568750 11.844399 -108.969101
v -3.461750 13.633699 -68.732002
v 2.904850 13.452599 -103.041504
v -2.591750 13.452599 -103.041504
v 3.918450 13.633699 -68.732002
v 3.918450 5.951199 -68.732002
v -2.591750 6.132199 -103.041504
v 2.904850 6.132199 -103.041504
v -3.461750 5.951199 -68.732002
v 5.055650 16.885099 -106.114502
v -4.742450 16.848099 -106.114502
v -2.238550 2.773699 -106.114502
v 2.693550 2.773699 -106.114502
v 1.877350 15.645199 -110.301704
v -1.568750 15.625999 -110.301704
v -1.568750 3.974099 -110.301704
v 1.877350 3.974099 -110.301704
v -4.266050 18.648098 -65.664902
v 4.226650 18.648098 -65.664902
v 4.226550 1.383999 -65.625206
v -4.266050 1.383999 -65.625206
v 1.301050 22.906300 -58.279305
v -3.479550 19.792099 -59.895004
v -1.058350 22.906300 -58.279305
v 3.775150 19.792099 -59.895004
v 1.124450 24.824699 -70.887703
v -0.881750 24.824699 -70.887703
v 1.124450 29.390499 -70.887703
v -0.881750 29.390499 -70.887703
v 1.124450 28.780600 -60.455002
v -0.881750 28.780600 -60.455002
v 1.101350 28.719898 -50.131805
v -0.904850 28.719898 -50.131805
v 1.101350 22.934599 -48.682804
v -0.904850 25.642099 -49.766006
v -0.904850 22.920898 -48.677505
v 1.101350 25.658600 -49.771706
v 0.093750 3.016899 -47.776604
v 0.338050 -7.308601 -63.810104
v 1.124450 20.621498 -47.436306
v -0.881750 20.621498 -47.436306
v 0.576950 16.764599 -43.745605
v -0.394950 16.764599 -43.745605
v 6.512350 12.985699 -55.245304
v 0.101250 19.439400 -46.765305
v 4.683849 26.560499 -56.206104
v -4.494650 26.560499 -56.206104
v -6.355550 12.985699 -55.245304
v 2.962450 -3.224601 -66.097900
v 1.915450 -12.915100 -68.777603
v -2.771750 -3.224601 -66.097900
v -1.718750 -12.915100 -68.777603
v 5.821850 1.639499 -73.483002
v -5.631150 1.639499 -73.483002
v -7.734050 7.234699 -63.208702
v 7.734050 7.223299 -63.304001
v 1.022650 -17.860701 -82.164001
v -0.825950 -17.860701 -82.164001
v 1.657450 -16.509100 -102.700302
v -1.460750 -16.509100 -102.700302
v 0.184350 -20.195101 -106.938705
v -5.021250 7.032499 -47.998104
v -3.701850 9.135999 -38.306004
v 0.098250 -2.854501 87.825394
v 0.098250 1.444200 99.159790
v -3.853150 7.200199 43.167999
v 0.091450 -5.285301 71.088303
v 0.098250 -6.347401 -11.411301
v -5.677450 7.587999 -15.313606
v 0.098250 -8.913401 -19.262005
v 0.098250 -13.127300 -25.745106
v 0.101450 -2.404501 -31.258904
v 0.101350 1.344899 -40.524902
v 0.098250 -0.892701 -49.643402
v -2.245250 -3.255201 -65.948006
v 0.098250 20.076399 -43.221905
v 0.101350 21.065098 -40.496006
v 0.101350 23.987099 -36.972404
v 0.101350 19.971798 -34.445404
v 0.101350 18.399799 -24.264904
v 0.098250 19.797899 -18.384903
v 0.100450 25.329599 -13.259102
v 0.098250 21.432499 -11.076508
v 0.098250 19.161400 -6.660301
v 0.098250 16.313900 42.637497
v 0.098250 13.460599 102.147293
v 0.098250 17.722300 90.949692
v -1.832850 9.788499 94.788895
v 0.098250 11.691399 112.301697
v 0.098350 -29.390499 -66.077301
v 0.098350 -26.891003 -84.976402
v 0.202250 -9.432301 -54.032703
v 0.098250 -13.253000 -52.101501
v 0.098350 -27.081600 -54.542004
v 0.098250 -18.063301 -44.887203
v 1.908650 -5.086700 -54.235004
v 5.228050 7.032499 -47.998104
v 6.531750 12.985699 -55.245304
v 4.691350 26.560499 -56.206104
v 3.904950 9.135999 -38.306004
v 0.095450 19.439400 -46.765305
v 4.049850 7.200199 43.167999
v 0.105350 -5.285301 71.088303
v 5.874150 7.587999 -15.313606
v 2.441950 -3.255201 -65.948006
v 5.827849 1.639499 -73.483002
v 7.603250 7.234699 -63.208702
v 0.096250 25.329599 -13.259102
v 2.029550 9.788499 94.788803
v -0.005550 -9.432301 -54.032703
v -1.711950 -5.086700 -54.235004
v 0.970650 18.795498 -37.430305
v -0.794250 18.795498 -37.430305
v 0.970750 14.964299 -33.447403
v -0.794250 14.964299 -33.447403
v 0.970750 10.820799 -25.000004
v -0.794250 10.820799 -25.000004
v 0.594450 15.069300 -16.935204
v -0.377350 15.069300 -16.935204
v 0.498850 11.355099 -3.859901
v -0.473050 11.355099 -3.859901
v 0.576950 9.460199 82.625992
v -0.394850 9.460199 82.625992
v 0.576950 8.934899 90.107803
v -0.394850 8.934899 90.107803
v 0.091050 8.809899 97.672791
v 0.091950 11.903099 -61.227707
v 0.088250 4.864499 -41.016804
v 3.490050 8.704899 -47.201405
v 0.088250 2.848399 -28.158104
v 0.091050 -3.144001 -20.909706
v 0.091050 0.157599 -10.272507
v 0.091050 1.285799 74.209991
v 0.091050 2.373299 85.899200
v 0.091050 4.498599 90.755295
v 0.093750 3.016899 -47.776604
v -3.357750 8.735799 -47.201405
# 140 vertices

vt 0.831300 0.161900
vt 0.927600 0.227100
vt 0.830600 0.227100
vt 0.927600 0.161900
vt 0.455100 0.743200
vt 0.845600 0.812500
vt 0.845600 0.749700
vt 0.455100 0.821300
vt 0.921600 0.837100
vt 0.921600 0.725200
vt 0.999300 0.808900
vt 0.999300 0.755300
vt 0.394000 0.733500
vt 0.394000 0.823500
vt 0.991100 0.161900
vt 0.991500 0.227100
vt 0.763300 0.227100
vt 0.763300 0.161900
vt 0.357500 0.605400
vt 0.770800 0.424600
vt 0.770800 0.601100
vt 0.357500 0.420200
vt 0.814800 0.343600
vt 0.814800 0.683800
vt 0.313700 0.723700
vt 0.358500 0.419400
vt 0.358500 0.603600
vt 0.296500 0.310000
vt 0.855700 0.460400
vt 0.855700 0.562300
vt 0.874700 0.372500
vt 0.874700 0.653900
vt 0.855700 0.461400
vt 0.819000 0.027400
vt 0.878600 0.096600
vt 0.819000 0.091500
vt 0.878600 0.021400
vt 0.604700 0.032200
vt 0.604700 0.086700
vt 0.528000 0.032200
vt 0.528000 0.086700
vt 0.352300 0.032200
vt 0.352300 0.086700
vt 0.177100 0.032900
vt 0.177100 0.087300
vt 0.077900 0.032900
vt 0.127000 0.087300
vt 0.077700 0.087300
vt 0.127200 0.032900
vt 0.239000 0.970600
vt 0.388300 0.875200
vt 0.388300 0.985300
vt 0.207800 0.829000
vt 0.091200 0.969100
vt 0.070500 0.829600
vt 0.086100 0.895300
vt 0.052700 0.349100
vt 0.275600 0.101600
vt 0.230200 0.752500
vt 0.048600 0.772500
vt 0.973300 0.012100
vt 0.973300 0.112500
vt 0.031900 0.032300
vt 0.031900 0.086700
vt 0.004800 0.043700
vt 0.004800 0.066100
vt -0.006100 0.678600
vt 0.581100 0.166000
vt 0.512500 0.190500
vt 0.581100 0.220600
vt 0.634400 0.227500
vt 0.585200 0.039600
vt 0.478200 0.268800
vt 0.216500 0.024700
vt 0.188900 0.040600
vt 0.215600 0.284700
vt 0.192900 0.278000
vt 0.251100 0.011200
vt 0.251100 0.296900
vt 0.360000 0.255100
vt 0.451400 0.225200
vt 0.359200 0.049700
vt 0.451300 0.082800
vt 0.143300 0.071200
vt 0.143300 0.248700
vt 0.105200 0.098400
vt 0.105200 0.220600
vt 0.042800 0.157500
vt 0.714900 0.958400
vt 0.709700 0.743000
vt 0.670700 0.641700
vt 0.655900 0.852900
vt 0.610400 0.665800
vt 0.120500 0.492000
vt 0.060600 0.547600
vt 0.292000 0.672000
vt 0.208800 0.459700
vt 0.521200 0.446900
vt 0.532300 0.659300
vt 0.563400 0.412400
vt 0.598300 0.362100
vt 0.608000 0.501200
vt 0.627500 0.544900
vt 0.665900 0.504200
vt 0.807900 0.549900
vt 0.768100 0.467200
vt 0.752600 0.645200
vt 0.636900 0.863700
vt 0.622200 0.880500
vt 0.603200 0.930300
vt 0.589600 0.861900
vt 0.560400 0.822500
vt 0.537200 0.844400
vt 0.521200 0.911300
vt 0.509500 0.877200
vt 0.485700 0.841500
vt 0.294800 0.803700
vt 0.063300 0.745400
vt 0.104000 0.787000
vt 0.083700 0.692200
vt 0.009600 0.690600
vt 0.746000 0.139700
vt 0.776700 0.338400
vt 0.860400 0.132200
vt 0.851400 0.249200
vt 0.996300 0.169600
vt 0.976500 0.228400
vt 0.685900 0.398000
vt 0.672300 0.357200
vt 0.678400 0.189500
vt 0.626300 0.314700
vt 0.685600 0.439600
vt 0.157900 0.852100
vt 0.157900 0.975000
vt 0.190900 0.852100
vt 0.190900 0.975000
vt 0.247200 0.852100
vt 0.247200 0.975000
vt 0.301700 0.849800
vt 0.301700 0.972800
vt 0.383000 0.849000
vt 0.383000 0.972000
vt 0.900200 0.847300
vt 0.900200 0.971100
vt 0.945000 0.848300
vt 0.945000 0.971300
vt 0.990300 0.909900
vt 0.009700 0.913400
vt 0.865600 0.310400
vt 0.903700 0.451700
vt 0.843400 0.822900
vt 0.818800 0.682000
vt 0.786200 0.236300
vt 0.766700 0.529500
vt 0.741500 0.015800
vt 0.717000 0.685800
vt 0.675800 0.137300
vt 0.636300 0.549200
vt 0.154500 0.178800
vt 0.102600 0.479500
vt 0.082400 0.218800
vt 0.052400 0.297000
vt 0.056400 0.460200
vt 0.009700 0.455600
vt 0.907300 0.242500
vt 0.990300 0.569400
vt 0.903700 0.452800
# 167 texture coordinates

vn -0.431914 0.099430 -0.896417
vn 0.270673 -0.157105 -0.949765
vn 0.599613 0.062721 -0.797828
vn -0.410104 -0.146626 -0.900175
vn -0.729797 0.620355 -0.287325
vn 0.723612 0.633677 0.273567
vn -0.714418 0.541227 0.443485
vn 0.734003 0.500977 -0.458542
vn 0.732866 -0.628197 -0.261295
vn -0.738372 -0.659968 0.138736
vn 0.742126 -0.581981 0.332485
vn -0.693211 -0.502032 -0.517128
vn 0.870430 0.490981 -0.035912
vn -0.806395 0.517941 -0.285419
vn -0.807216 -0.555912 0.198403
vn 0.796209 -0.604688 -0.020109
vn 0.306183 0.532371 -0.789198
vn -0.285215 0.035123 -0.957820
vn -0.403733 -0.625305 -0.667827
vn 0.388903 -0.084413 -0.917403
vn -0.693238 0.479582 -0.537980
vn 0.725565 0.603265 -0.331098
vn 0.876529 -0.323219 -0.356688
vn -0.938745 -0.247181 -0.240122
vn 0.953552 0.097670 -0.284955
vn -0.588900 0.724679 -0.357822
vn -0.973989 -0.149000 -0.170719
vn 0.800881 0.567918 -0.189894
vn 0.647984 -0.632199 -0.424784
vn -0.645646 -0.310705 -0.697570
vn 0.416430 0.415720 -0.808556
vn -0.416430 0.831440 -0.367823
vn 0.700430 0.713216 0.026864
vn -0.700621 0.713405 0.013564
vn 0.642520 0.691091 0.331000
vn -0.643944 0.408170 0.647096
vn 0.548507 0.342197 0.762917
vn -0.552914 0.240455 0.797789
vn -0.551455 0.365417 0.749911
vn 0.552102 0.170243 0.816211
vn 0.019264 -0.665453 0.746191
vn 0.025427 -0.893817 -0.447711
vn 0.782319 0.341290 0.521054
vn -0.784152 0.376476 0.493326
vn 0.441275 0.586926 0.678818
vn -0.699569 0.445963 0.558318
vn -0.350300 0.608324 -0.712202
vn -0.580841 0.664255 -0.470520
vn -0.840238 -0.150057 -0.521041
vn -0.837641 0.436863 0.327885
vn -0.339681 0.750305 -0.567150
vn 0.000000 -0.562384 -0.826876
vn 0.924739 0.296283 -0.238901
vn 0.000000 -0.121023 -0.992650
vn -0.982516 0.163435 -0.089171
vn -0.001310 0.520581 -0.853811
vn -0.607941 -0.638367 -0.472118
vn -0.609924 0.674828 -0.415452
vn -0.001777 0.835141 -0.550033
vn 0.773844 0.629359 -0.071223
vn -0.772868 0.607355 -0.183834
vn 0.526454 0.782224 -0.333125
vn -0.355523 0.912141 -0.203965
vn 0.019433 -0.291074 -0.956503
vn -0.925950 -0.324589 0.193025
vn -0.994244 0.073430 0.078013
vn 0.000008 -0.973183 0.230034
vn -0.000009 -0.911454 0.411402
vn -0.997211 -0.067355 0.032137
vn -0.964712 -0.262632 0.018851
vn -0.000004 -0.990053 0.140696
vn -0.995970 0.088342 0.015466
vn -0.000007 -0.897052 0.441925
vn 0.000094 -0.999197 -0.040072
vn 0.000076 -0.862985 -0.505229
vn 0.000058 -0.998511 -0.054559
vn -0.000381 -0.946791 0.321848
vn -0.896465 -0.389147 0.211930
vn -0.000222 0.965582 -0.260098
vn -0.000094 0.862959 -0.505274
vn -0.000027 0.972275 0.233840
vn -0.000019 0.810669 0.585504
vn 0.000048 0.996662 -0.081634
vn -0.000014 0.852771 -0.522285
vn -0.951448 0.305504 0.037601
vn -0.000017 0.693254 0.720694
vn -0.000007 0.968531 0.248894
vn -0.000009 0.999006 0.044575
vn -0.000016 0.966652 0.256092
vn -0.000014 0.981358 0.192189
vn -0.985607 0.157688 0.060938
vn -0.000030 0.730287 0.683141
vn 0.000000 -0.999565 0.029481
vn -0.000007 -0.969012 -0.247013
vn -0.971142 0.227094 0.072882
vn -0.000003 0.747822 0.663899
vn 0.000000 -0.901088 0.433637
vn -0.000011 0.500627 0.865663
vn -0.948529 -0.244678 0.201063
vn 0.928802 -0.319547 0.187660
vn 0.972614 0.060273 0.224475
vn 0.850779 0.335937 0.404131
vn 0.994255 0.073449 0.077866
vn 0.744339 0.566078 0.354281
vn 0.997212 -0.067351 0.032139
vn 0.964716 -0.262615 0.018855
vn 0.995969 0.088322 0.015642
vn 0.896375 -0.389432 0.211789
vn 0.873103 -0.472406 0.120517
vn 0.950501 -0.274936 0.144770
vn 0.951448 0.305502 0.037614
vn 0.985605 0.157699 0.060943
vn 0.971147 0.227071 0.072888
vn 0.948379 -0.245038 0.201329
vn 0.905221 0.404733 0.129483
vn -0.698933 0.635814 0.327465
vn 0.591795 0.634666 0.496969
vn -0.739038 0.567552 0.362914
vn 0.767923 0.633449 0.095059
vn -0.627629 0.767974 -0.127659
vn 0.744244 0.651993 -0.144936
vn -0.752069 0.657428 0.046705
vn 0.724507 0.675642 0.136373
vn -0.725098 0.684221 0.077941
vn 0.827038 0.561448 0.027993
vn -0.823231 0.566702 0.033762
vn 0.579654 0.812535 0.061558
vn -0.864516 0.499629 0.054609
vn 0.000000 0.984880 0.173235
vn 0.004061 0.544722 -0.838607
vn -0.472282 -0.737684 0.482465
vn 0.975854 -0.216870 0.025999
vn 0.004847 -0.969006 -0.246989
vn -0.026011 -0.999589 -0.012079
vn 0.012250 -0.995180 0.097300
vn 0.961573 -0.274333 0.010915
vn -0.937326 -0.340804 0.072606
vn 0.892574 -0.419022 0.166531
vn 0.002583 -0.986114 -0.166049
vn -0.975606 -0.217993 0.025931
# 140 normals

g BB.JPG
usemtl BB.JPG
s 1
f 1/1/1 2/2/2 3/3/3
f 2/2/2 1/1/1 4/4/4
f 5/5/5 6/6/6 7/7/7
f 6/6/6 5/5/5 8/8/8
f 9/8/9 10/7/10 11/6/11
f 10/7/10 9/8/9 12/5/12
f 7/7/7 13/9/13 14/10/14
f 13/9/13 7/7/7 6/6/6
f 11/6/11 15/10/15 16/9/16
f 15/10/15 11/6/11 10/7/10
f 14/10/14 17/11/17 18/12/18
f 17/11/17 14/10/14 13/9/13
f 16/9/16 19/12/19 20/11/20
f 19/12/19 16/9/16 15/10/15
f 21/13/21 8/8/8 5/5/5
f 8/8/8 21/13/21 22/14/22
f 23/14/23 12/5/12 9/8/9
f 12/5/12 23/14/23 24/13/24
f 18/15/18 2/2/2 4/4/4
f 2/2/2 18/15/18 17/16/17
f 20/17/20 1/1/1 3/3/3
f 1/1/1 20/17/20 19/18/19
f 8/19/8 11/20/11 6/21/6
f 11/20/11 8/19/8 9/22/9
f 6/21/6 16/23/16 13/24/13
f 16/23/16 6/21/6 11/20/11
f 22/25/22 9/26/9 8/27/8
f 9/26/9 22/25/22 23/28/23
f 13/24/13 3/29/3 2/30/2
f 16/23/16 3/29/3 13/24/13
f 3/29/3 16/23/16 20/31/20
f 13/24/13 2/30/2 17/32/17
f 10/20/10 5/19/5 7/21/7
f 5/19/5 10/20/10 12/22/12
f 15/23/15 7/21/7 14/24/14
f 7/21/7 15/23/15 10/20/10
f 12/26/12 21/25/21 5/27/5
f 21/25/21 12/26/12 24/28/24
f 15/23/15 14/24/14 1/33/1
f 1/33/1 14/24/14 4/30/4
f 1/33/1 19/31/19 15/23/15
f 14/24/14 18/32/18 4/30/4
f 25/34/25 26/35/26 27/36/27
f 28/37/28 26/35/26 25/34/25
f 29/38/29 27/36/27 30/39/30
f 25/34/25 27/36/27 29/38/29
f 31/40/31 30/39/30 32/41/32
f 29/38/29 30/39/30 31/40/31
f 33/42/33 32/41/32 34/43/34
f 31/40/31 32/41/32 33/42/33
f 35/44/35 34/43/34 36/45/36
f 33/42/33 34/43/34 35/44/35
f 37/46/37 38/47/38 39/48/39
f 40/49/40 38/47/38 37/46/37
f 33/50/33 29/51/29 31/52/31
f 33/50/33 25/53/25 29/51/29
f 35/54/35 25/53/25 33/50/33
f 37/55/37 25/53/25 40/56/40
f 23/28/23 41/57/41 42/58/42
f 22/25/22 28/59/28 23/28/23
f 28/59/28 25/53/25 43/60/43
f 22/61/22 26/35/26 28/37/28
f 26/35/26 22/61/22 21/62/21
f 28/59/28 43/60/43 23/28/23
f 34/50/34 32/52/32 30/51/30
f 34/50/34 30/51/30 27/53/27
f 36/54/36 34/50/34 27/53/27
f 39/55/39 38/56/38 27/53/27
f 24/28/24 41/57/41 44/60/44
f 26/59/26 24/28/24 44/60/44
f 26/59/26 44/60/44 27/53/27
f 26/59/26 21/25/21 24/28/24
f 35/44/35 36/45/36 40/49/40
f 40/56/40 25/53/25 35/54/35
f 40/49/40 36/45/36 38/47/38
f 38/56/38 36/54/36 27/53/27
f 43/63/43 39/48/39 44/64/44
f 44/60/44 39/55/39 27/53/27
f 37/46/37 39/48/39 43/63/43
f 43/60/43 25/53/25 37/55/37
f 24/28/24 42/58/42 41/57/41
f 43/63/43 44/64/44 45/65/45
f 46/66/46 45/65/45 44/64/44
f 23/28/23 43/60/43 41/57/41
f 43/60/43 45/67/45 41/57/41
f 44/60/44 41/57/41 46/67/46
f 23/68/23 42/69/42 24/70/24
# 87 triangles in group

g aa.tga
usemtl aa.tga
f 47/71/47 48/72/48 49/73/49
f 50/73/50 48/72/48 51/71/51
f 52/74/52 53/75/53 54/76/54
f 54/76/54 53/75/53 55/77/55
f 56/78/56 52/74/52 57/79/57
f 57/79/57 52/74/52 54/76/54
f 58/80/58 51/81/51 59/82/59
f 47/83/47 59/82/59 51/81/51
f 57/79/57 58/80/58 56/78/56
f 59/82/59 56/78/56 58/80/58
f 47/83/47 51/81/51 48/83/48
f 60/84/60 61/85/61 53/75/53
f 55/77/55 53/75/53 61/85/61
f 62/86/62 63/87/63 60/84/60
f 61/85/61 60/84/60 63/87/63
f 63/87/63 62/86/62 64/88/64
f 50/89/50 51/90/51 65/91/65
f 48/92/48 50/89/50 66/93/66
f 67/94/67 68/95/68 69/96/69
f 70/97/70 67/94/67 69/96/69
f 71/98/71 69/96/69 72/99/72
f 71/98/71 70/97/70 69/96/69
f 73/100/73 71/98/71 72/99/72
f 74/101/74 73/100/73 72/99/72
f 75/102/75 74/101/74 72/99/72
f 76/103/76 75/102/75 66/93/66
f 66/93/66 75/102/75 72/99/72
f 77/104/77 76/103/76 66/93/66
f 65/91/65 77/104/77 66/93/66
f 57/105/57 78/106/78 65/91/65
f 51/90/51 58/107/58 65/91/65
f 50/89/50 65/91/65 66/93/66
f 79/108/79 48/92/48 66/93/66
f 80/109/80 79/108/79 66/93/66
f 81/110/81 80/109/80 66/93/66
f 82/111/82 81/110/81 66/93/66
f 83/112/83 82/111/82 66/93/66
f 84/113/84 83/112/83 72/99/72
f 72/99/72 83/112/83 66/93/66
f 85/114/85 84/113/84 72/99/72
f 86/115/86 85/114/85 72/99/72
f 87/116/87 72/99/72 88/117/88
f 87/116/87 86/115/86 72/99/72
f 88/117/88 72/99/72 69/96/69
f 89/118/89 90/119/90 91/120/91
f 68/95/68 92/121/92 91/120/91
f 58/107/58 57/105/57 65/91/65
f 68/95/68 91/120/91 69/96/69
f 90/119/90 88/117/88 91/120/91
f 69/96/69 91/120/91 88/117/88
f 92/121/92 89/118/89 91/120/91
f 93/122/93 55/123/55 94/124/94
f 61/125/61 94/124/94 55/123/55
f 94/124/94 61/125/61 64/126/64
f 63/127/63 64/126/64 61/125/61
f 95/128/95 55/123/55 96/129/96
f 55/123/55 97/130/97 98/131/98
f 97/130/97 55/123/55 93/122/93
f 77/104/77 65/91/65 99/132/99
f 95/128/95 99/132/99 55/123/55
f 99/132/99 78/106/78 55/123/55
f 99/132/99 65/91/65 78/106/78
f 98/131/98 96/129/96 55/123/55
f 100/91/100 101/90/101 102/89/102
f 103/93/103 102/89/102 104/92/104
f 105/96/105 68/95/68 67/94/67
f 105/96/105 67/94/67 106/97/106
f 107/99/107 105/96/105 71/98/71
f 105/96/105 106/97/106 71/98/71
f 107/99/107 71/98/71 73/100/73
f 107/99/107 73/100/73 74/101/74
f 107/99/107 74/101/74 75/102/75
f 103/93/103 75/102/75 76/103/76
f 107/99/107 75/102/75 103/93/103
f 103/93/103 76/103/76 77/104/77
f 103/93/103 77/104/77 100/91/100
f 100/91/100 108/106/108 109/105/109
f 100/91/100 110/107/110 101/90/101
f 103/93/103 100/91/100 102/89/102
f 103/93/103 104/92/104 79/108/79
f 103/93/103 79/108/79 80/109/80
f 103/93/103 80/109/80 81/110/81
f 103/93/103 81/110/81 82/111/82
f 103/93/103 82/111/82 83/112/83
f 107/99/107 83/112/83 84/113/84
f 103/93/103 83/112/83 107/99/107
f 107/99/107 84/113/84 111/114/111
f 107/99/107 111/114/111 86/115/86
f 88/117/88 107/99/107 87/116/87
f 107/99/107 86/115/86 87/116/87
f 105/96/105 107/99/107 88/117/88
f 112/120/112 90/119/90 89/118/89
f 112/120/112 92/121/92 68/95/68
f 100/91/100 109/105/109 110/107/110
f 105/96/105 112/120/112 68/95/68
f 112/120/112 88/117/88 90/119/90
f 88/117/88 112/120/112 105/96/105
f 112/120/112 89/118/89 92/121/92
f 94/124/94 53/123/53 93/122/93
f 53/123/53 94/124/94 60/125/60
f 64/126/64 60/125/60 94/124/94
f 60/125/60 64/126/64 62/127/62
f 96/129/96 53/123/53 113/128/113
f 98/131/98 97/130/97 53/123/53
f 93/122/93 53/123/53 97/130/97
f 114/132/114 100/91/100 77/104/77
f 53/123/53 114/132/114 113/128/113
f 53/123/53 108/106/108 114/132/114
f 108/106/108 100/91/100 114/132/114
f 53/123/53 96/129/96 98/131/98
# 110 triangles in group

g CC.JPG
usemtl CC.JPG
f 115/133/115 116/134/116 117/135/117
f 118/136/118 117/135/117 116/134/116
f 117/135/117 118/136/118 119/137/119
f 120/138/120 119/137/119 118/136/118
f 119/137/119 120/138/120 121/139/121
f 122/140/122 121/139/121 120/138/120
f 121/139/121 122/140/122 123/141/123
f 124/142/124 123/141/123 122/140/122
f 123/141/123 124/142/124 125/143/125
f 126/144/126 125/143/125 124/142/124
f 125/143/125 126/144/126 127/145/127
f 128/146/128 127/145/127 126/144/126
f 127/145/127 128/146/128 129/147/129
f 116/134/116 115/133/115 130/148/130
f 131/149/131 132/150/132 115/151/115
f 117/152/117 133/153/133 115/151/115
f 119/154/119 133/153/133 117/152/117
f 133/153/133 119/154/119 134/155/134
f 121/156/121 134/155/134 119/154/119
f 134/155/134 121/156/121 135/157/135
f 123/158/123 135/157/135 121/156/121
f 131/149/131 115/151/115 133/153/133
f 136/159/136 125/160/125 137/161/137
f 137/161/137 125/160/125 138/162/138
f 127/163/127 138/162/138 125/160/125
f 138/162/138 127/163/127 129/164/129
f 131/149/131 139/165/139 132/150/132
f 139/165/139 130/166/130 132/150/132
f 130/166/130 115/151/115 132/150/132
f 125/160/125 136/159/136 123/158/123
f 135/157/135 123/158/123 136/159/136
f 140/167/140 131/149/131 116/151/116
f 140/167/140 139/165/139 131/149/131
f 131/149/131 118/152/118 116/151/116
f 118/152/118 133/153/133 120/154/120
f 120/154/120 133/153/133 122/156/122
f 134/155/134 122/156/122 133/153/133
f 122/156/122 134/155/134 124/158/124
f 135/157/135 124/158/124 134/155/134
f 133/153/133 118/152/118 131/149/131
f 137/161/137 126/160/126 136/159/136
f 126/160/126 137/161/137 128/163/128
f 138/162/138 128/163/128 137/161/137
f 128/163/128 138/162/138 129/164/129
f 116/151/116 130/166/130 140/167/140
f 130/166/130 139/165/139 140/167/140
f 136/159/136 126/160/126 135/157/135
f 124/158/124 135/157/135 126/160/126
# 48 triangles in group

# 245 triangles total

