# Wavefront OBJ exported by MilkShape 3D

mtllib BoneBlade-OBJ.mtl

v -0.004700 -13.875500 187.728104
v 3.768600 -0.856500 154.265198
v -0.004700 -3.984700 193.905701
v 3.768600 1.634700 153.546997
v -0.004700 -24.686199 165.200500
v -3.778000 -3.145900 153.153702
v -0.004700 -23.697901 160.511597
v -3.778000 -4.326500 150.265503
v -0.387200 -8.123600 -27.987301
v 0.377800 -8.123600 -27.987301
v -0.004700 -11.349000 -27.924000
v 5.901800 4.134800 11.878200
v -5.911100 4.134800 11.878200
v 3.768600 9.915700 33.592602
v -3.778000 9.915800 33.592602
v 3.768600 -0.605300 39.715401
v 3.768600 -2.901900 44.213600
v 2.353600 -11.367100 38.361301
v 1.882000 -13.694400 50.893101
v 3.768600 -4.326400 49.251701
v 3.768600 -4.326400 49.251701
v -3.778000 -4.326400 49.251701
v 3.768600 -4.326500 150.265503
v -3.778000 -4.326500 150.265503
v 3.768600 -3.145900 153.153702
v -3.778000 -3.145900 153.153702
v 3.768600 -0.856500 154.265198
v -3.778000 -0.856500 154.265198
v 3.768600 -0.605300 39.715401
v -3.778000 -0.605300 39.715401
v 3.768600 -2.901900 44.213600
v -3.778000 -2.901900 44.213600
v -0.004700 4.134800 197.422806
v 3.768600 4.134800 150.521500
v -3.778000 4.134800 150.521500
v 3.768600 9.915700 33.592602
v -3.778000 9.915800 33.592602
v 3.768600 3.678300 35.779598
v -3.778000 3.678300 35.779598
v 3.768600 1.634700 153.546997
v -3.778000 1.634700 153.546997
v 3.768600 4.134800 150.521500
v -3.778000 4.134800 150.521500
v 5.901800 -4.052400 12.413600
v -5.911100 -4.052400 12.413600
v 5.901800 4.134800 11.878200
v -5.911100 4.134800 11.878200
v -0.004700 -23.062401 32.154900
v -0.004700 -22.346901 21.757099
v 0.994000 -19.369400 29.888100
v 1.713900 -15.676300 28.883699
v 2.269600 -11.632100 28.844801
v 2.825300 -6.902000 32.330502
v 5.901800 -4.052400 12.413600
v 3.768600 -13.516900 16.295700
v -5.911100 -4.052400 12.413600
v -2.834700 -6.902000 32.330502
v -5.911100 4.134800 11.878200
v -3.778000 9.915800 33.592602
v -2.278900 -11.632100 28.844700
v -1.003300 -19.369400 29.888100
v -1.723200 -15.676300 28.883699
v -3.778000 -13.516900 16.295700
v 0.467000 -21.316999 47.535999
v -0.004700 -23.659000 44.518002
v -0.476300 -21.316999 47.535999
v -3.778000 -0.856500 154.265198
v -3.778000 1.634700 153.546997
v 3.768600 -3.145900 153.153702
v -0.004700 -26.743299 168.141602
v -0.004700 -30.844000 171.684402
v -0.004700 4.134800 197.422806
v 3.768600 4.134800 150.521500
v -3.778000 4.134800 150.521500
v -0.004700 -22.599501 180.748795
v 3.768600 -4.326500 150.265503
v -3.778000 -4.326500 150.265503
v -0.004700 -23.659000 156.270905
v -0.004700 -23.659000 44.518002
v 0.467000 -21.316999 47.535999
v 3.768600 -4.326500 150.265503
v 1.197800 -17.848400 50.333500
v 1.197800 -17.848400 50.333500
v -1.207100 -17.848400 50.333500
v 1.882000 -13.694400 50.893101
v -1.891300 -13.694400 50.893101
v -1.891300 -13.694400 50.893101
v -2.363000 -11.367100 38.361301
v -1.003300 -19.369400 29.888100
v -0.004700 -23.062401 32.154900
v 0.994000 -19.369400 29.888100
v -1.723200 -15.676300 28.883699
v 1.713900 -15.676300 28.883699
v -2.278900 -11.632100 28.844700
v 2.269600 -11.632100 28.844801
v -2.834700 -6.902000 32.330502
v 2.825300 -6.902000 32.330502
v -2.825500 -13.303400 3.397600
v -0.004700 -20.431000 1.583400
v 2.816100 -13.303400 3.397600
v -1.659900 -11.782000 -13.034300
v 1.650500 -11.782000 -13.034300
v 3.768600 9.915700 33.592602
v 5.901800 4.134800 11.878200
v -3.778000 -0.605300 39.715401
v -3.778000 3.678300 35.779598
v 3.768600 3.678300 35.779598
v -3.778000 -4.326400 49.251701
v -3.778000 -2.901900 44.213600
v -0.004700 -16.431999 -15.737800
v -0.476300 -21.316999 47.535999
v -1.207100 -17.848400 50.333500
v 1.465000 2.168600 12.623700
v 2.929900 -0.067100 12.623700
v 1.632500 2.424300 5.395000
v 3.265100 -0.067100 5.395000
v -1.464900 2.168600 12.623700
v -1.632500 2.424300 5.395000
v -2.929800 -0.067100 12.623700
v -1.464900 2.168600 12.623700
v -3.265000 -0.067100 5.395000
v -1.632500 2.424300 5.395000
v 0.000100 -2.302800 12.623700
v 0.000100 -2.558500 5.395000
v 0.000100 -2.302800 12.623700
v 0.000100 -2.558500 5.395000
v 1.198300 1.761500 -1.833600
v 2.396500 -0.067100 -1.833600
v -1.198200 1.761500 -1.833600
v -2.396400 -0.067100 -1.833600
v -1.198200 1.761500 -1.833600
v 0.000100 -1.895800 -1.833600
v 0.000100 -1.895800 -1.833600
v 1.198300 1.761500 -9.062300
v 2.396500 -0.067100 -9.062300
v -1.198200 1.761500 -9.062300
v -2.396400 -0.067100 -9.062300
v -1.198200 1.761500 -9.062300
v 0.000100 -1.895800 -9.062300
v 0.000100 -1.895800 -9.062300
v 1.632600 2.424300 -16.291000
v 3.265100 -0.067100 -16.291000
v -1.632500 2.424300 -16.291000
v -3.265000 -0.067100 -16.291000
v -1.632500 2.424300 -16.291000
v 0.000100 -2.558500 -16.291000
v 0.000100 -2.558500 -16.291000
v 1.465000 2.168600 -23.519699
v 2.929900 -0.067100 -23.519699
v -1.464900 2.168600 -23.519699
v -2.929800 -0.067100 -23.519699
v -1.464900 2.168600 -23.519699
v 0.000100 -2.302800 -23.519699
v 0.000100 -2.302800 -23.519699
v -1.464900 2.168600 -23.519699
v 1.465000 2.168600 -23.519699
v -2.929800 -0.067100 -23.519699
v 0.000100 -2.302800 -23.519699
v 2.929900 -0.067100 -23.519699
v 1.034400 9.051600 33.125099
v -0.001500 6.917800 45.993301
v -0.001500 6.213800 34.156601
v 0.911100 14.890000 50.554001
v -0.001500 5.479400 50.891300
v 1.034400 11.204600 52.618301
v 1.034400 8.064200 55.404301
v -0.001500 3.554000 54.143501
v 1.034400 5.061600 59.032398
v 1.034400 3.081900 63.564899
v 0.255600 -0.886500 55.265999
v -0.001500 -2.193600 149.092194
v -0.001500 -2.193500 54.458302
v 0.255600 1.191600 55.513901
v 1.034400 3.081900 154.368301
v 1.034400 3.081900 154.368301
v -1.037300 3.081900 63.564899
v -1.037400 3.081900 154.368301
v 1.034400 3.081900 63.564899
v -1.003900 9.051600 33.125099
v -0.884800 14.890000 50.554001
v -1.003900 8.064200 55.404301
v -1.003900 11.204600 52.618301
v -1.037300 3.081900 63.564899
v -1.003900 5.061600 59.032398
v -0.258600 -0.886500 55.265999
v -0.258600 1.191600 55.513901
v -1.037400 3.081900 154.368301
v 0.911100 14.890000 50.554001
v 1.034400 9.051600 33.125099
v -0.884800 14.890000 50.554001
v -1.003900 9.051600 33.125099
v 1.034400 8.064200 55.404301
v 1.034400 11.204600 52.618301
v -1.003900 8.064200 55.404301
v -1.003900 11.204600 52.618301
v 1.034400 5.061600 59.032398
v -1.003900 5.061600 59.032398
# 197 vertices

vt 0.044500 0.415500
vt 0.152200 0.728600
vt 0.027600 0.653400
vt 0.154700 0.788500
vt 0.114100 0.174300
vt 0.156100 0.676800
vt 0.130500 0.198100
vt 0.166200 0.648400
vt 0.991700 0.553800
vt 0.991400 0.476300
vt 0.526900 0.833300
vt 0.526900 0.980400
vt 0.653000 0.859800
vt 0.653000 0.953800
vt 0.672400 0.734600
vt 0.651200 0.679400
vt 0.678800 0.475900
vt 0.619700 0.419900
vt 0.627400 0.648400
vt 0.341300 0.711800
vt 0.341300 0.804600
vt 0.649300 0.711800
vt 0.649300 0.804600
vt 0.185300 0.708900
vt 0.185300 0.804700
vt 0.211500 0.708900
vt 0.211500 0.804700
vt 0.304000 0.711800
vt 0.304000 0.804600
vt 0.322600 0.711800
vt 0.322600 0.804600
vt 0.353100 0.908900
vt 0.520000 0.833000
vt 0.520000 0.984800
vt 0.264000 0.711800
vt 0.264000 0.804600
vt 0.283200 0.711800
vt 0.283200 0.804600
vt 0.238200 0.708900
vt 0.238200 0.804700
vt 0.263100 0.708900
vt 0.821300 0.651000
vt 0.821300 0.852200
vt 0.990500 0.651000
vt 0.990500 0.852200
vt 0.708100 0.194600
vt 0.757100 0.211800
vt 0.718800 0.283400
vt 0.723500 0.372200
vt 0.723700 0.469500
vt 0.707200 0.583200
vt 0.801200 0.651700
vt 0.782900 0.424200
vt 0.803700 0.848600
vt 0.701300 0.987600
vt 0.547100 0.541300
vt 0.539200 0.513800
vt 0.531300 0.541300
vt 0.103900 0.124800
vt 0.088200 0.026200
vt 0.018100 0.848600
vt 0.165300 0.848600
vt 0.063500 0.224500
vt 0.169800 0.708900
vt 0.169800 0.804700
vt 0.145200 0.199000
vt 0.649800 0.199000
vt 0.635500 0.255300
vt 0.622300 0.320000
vt 0.559300 0.575700
vt 0.519000 0.575700
vt 0.570800 0.606200
vt 0.507600 0.606200
vt 0.299300 0.924100
vt 0.329800 0.917500
vt 0.299300 0.910900
vt 0.268600 0.928900
vt 0.268600 0.906100
vt 0.234900 0.932500
vt 0.234900 0.902500
vt 0.194800 0.936200
vt 0.194800 0.898800
vt 0.843700 0.429300
vt 0.852200 0.257900
vt 0.921200 0.465900
vt 0.691000 0.837600
vt 0.933900 0.354100
vt 0.282900 0.521100
vt 0.271100 0.521100
vt 0.282900 0.545200
vt 0.271100 0.545200
vt 0.294700 0.521100
vt 0.294700 0.545200
vt 0.235600 0.521100
vt 0.223800 0.521100
vt 0.235600 0.545200
vt 0.223800 0.545200
vt 0.247400 0.521100
vt 0.247400 0.545200
vt 0.259300 0.521100
vt 0.259300 0.545200
vt 0.282900 0.569300
vt 0.271100 0.569300
vt 0.294700 0.569300
vt 0.235600 0.569300
vt 0.223800 0.569300
vt 0.247400 0.569300
vt 0.259300 0.569300
vt 0.282900 0.593400
vt 0.271100 0.593400
vt 0.294700 0.593400
vt 0.235600 0.593400
vt 0.223800 0.593400
vt 0.247400 0.593400
vt 0.259300 0.593400
vt 0.282900 0.617500
vt 0.271100 0.617500
vt 0.294700 0.617500
vt 0.235600 0.617500
vt 0.223800 0.617500
vt 0.247400 0.617500
vt 0.259300 0.617500
vt 0.282900 0.641600
vt 0.271100 0.641600
vt 0.294700 0.641600
vt 0.235600 0.641600
vt 0.223800 0.641600
vt 0.247400 0.641600
vt 0.259300 0.641600
vt 0.198700 0.895000
vt 0.198700 0.926900
vt 0.227000 0.879100
vt 0.255200 0.926900
vt 0.227000 0.942800
vt 0.986700 0.169600
vt 0.897000 0.141700
vt 0.979500 0.132600
vt 0.865100 0.245800
vt 0.862800 0.123000
vt 0.850700 0.197700
vt 0.831300 0.156700
vt 0.840100 0.097800
vt 0.806000 0.117500
vt 0.774400 0.091700
vt 0.832300 0.039900
vt 0.163900 0.022800
vt 0.837900 0.022800
vt 0.830500 0.067000
vt 0.136700 0.091700
vt 0.083800 0.288700
vt 0.457300 0.219200
vt 0.083800 0.219200
vt 0.457300 0.288700
vt 0.530000 0.288600
vt 0.591600 0.288600
vt 0.530000 0.220400
vt 0.591600 0.220400
vt 0.498900 0.288600
vt 0.515500 0.288600
vt 0.498900 0.220400
vt 0.515500 0.220400
vt 0.479100 0.288700
vt 0.479100 0.220400
# 163 texture coordinates

vn -0.805245 -0.246859 0.539111
vn 0.995276 -0.024749 0.093877
vn 0.902250 -0.143267 0.406718
vn 0.995675 0.028881 0.088301
vn 0.000000 -0.896072 -0.443908
vn -0.980286 -0.187453 -0.062448
vn 0.763629 -0.645435 0.016884
vn -0.983334 -0.180599 0.020928
vn -0.752108 0.597857 -0.277310
vn 0.867592 0.256924 -0.425763
vn 0.000000 -0.227572 -0.973761
vn 0.000000 0.966341 -0.257263
vn 0.988590 -0.118242 -0.093319
vn 0.985343 -0.166196 -0.038453
vn 0.753090 -0.621706 -0.215261
vn 0.914804 -0.400053 -0.055595
vn 0.978893 -0.202265 -0.029267
vn 0.000000 0.983127 0.182926
vn 0.000000 0.995808 0.091464
vn 0.000000 1.000000 0.000001
vn 0.000000 0.810031 -0.586388
vn 0.000000 0.636945 -0.770909
vn 0.000000 0.211236 -0.977435
vn 0.000000 -0.041534 -0.999137
vn 0.000000 0.758554 0.651611
vn 0.000000 0.830918 0.556395
vn 0.000000 0.918450 0.395536
vn 0.000000 0.942434 0.334393
vn 0.000004 0.330877 0.943674
vn 0.000001 0.454389 0.890803
vn 0.000000 0.571762 0.820419
vn 0.000000 -0.459809 -0.888018
vn 0.000000 -0.631202 -0.775619
vn 0.000000 -0.770865 -0.636999
vn 0.000000 -0.065255 -0.997869
vn -0.000013 -0.997641 -0.068650
vn -0.000004 -0.999124 -0.041838
vn 0.970836 -0.237564 -0.032250
vn 0.982379 -0.169906 -0.077869
vn 0.976034 -0.203098 0.078156
vn 0.913121 -0.370374 -0.170390
vn 0.850429 -0.322792 -0.415423
vn 0.969769 -0.157159 -0.186680
vn -0.956631 -0.239465 -0.165873
vn -0.969763 -0.235486 -0.064082
vn -0.990559 -0.027084 0.134382
vn -0.998432 -0.055395 -0.008075
vn -0.976034 -0.203099 0.078162
vn -0.970840 -0.237550 -0.032244
vn -0.982380 -0.169906 -0.077856
vn -0.917268 0.002712 -0.398260
vn 0.000000 0.713709 -0.700442
vn 0.000000 0.790028 -0.613071
vn 0.000000 0.685968 -0.727632
vn -0.993895 -0.004752 0.110224
vn -0.995427 0.010376 0.094957
vn 0.980286 -0.187453 -0.062448
vn 0.000000 -0.712939 -0.701226
vn 0.992119 0.096592 0.079818
vn -0.992119 0.096592 0.079818
vn 0.000000 -0.685004 0.728539
vn 0.000000 0.925652 -0.378376
vn -0.921082 -0.389366 -0.000897
vn -0.000021 -1.000000 0.000000
vn 0.969444 -0.245310 -0.001099
vn 0.984063 -0.177149 0.015416
vn 0.982484 -0.186343 -0.001044
vn 0.000000 0.478682 -0.877989
vn 0.000000 0.308352 -0.951272
vn 0.000000 0.133508 -0.991048
vn -0.820797 -0.564546 -0.087068
vn -0.753600 -0.587949 -0.293944
vn 0.000000 0.396800 0.917905
vn 0.000000 0.523124 0.852257
vn 0.000000 0.352504 0.935810
vn 0.000000 0.179474 0.983763
vn -0.000007 0.094586 0.995517
vn -0.000014 -0.200481 0.979698
vn -0.000014 -0.411053 0.911611
vn -0.000009 -0.593245 0.805022
vn -0.820231 0.571338 -0.028169
vn 0.000000 -0.980619 -0.195925
vn 0.492851 0.870034 0.011777
vn -0.808766 0.587283 0.031556
vn 0.810299 0.581440 0.073099
vn 0.998432 -0.055396 -0.008072
vn 0.990559 -0.027085 0.134387
vn -0.988590 -0.118242 -0.093319
vn -0.993093 -0.084116 -0.081798
vn 0.993093 -0.084116 -0.081798
vn -0.979841 -0.198788 -0.019891
vn -0.985342 -0.166201 -0.038452
vn 0.000000 -0.931768 -0.363055
vn -0.979445 -0.201711 -0.000097
vn -0.982839 -0.184460 0.001038
vn 0.311603 0.949336 0.040801
vn 0.990356 0.130717 0.045916
vn 0.475299 0.879234 -0.032226
vn 0.984675 -0.169627 -0.040525
vn 0.000000 0.999375 0.035351
vn 0.000000 0.999976 -0.006881
vn -0.890614 -0.452881 0.041295
vn -0.835806 0.547656 0.038754
vn -0.985152 -0.168702 -0.031871
vn -0.835215 0.547279 -0.053867
vn -0.606386 -0.794673 0.028110
vn -0.606609 -0.794982 -0.005494
vn 0.606393 -0.794668 0.028115
vn 0.606167 -0.794374 -0.039137
vn 0.474162 0.878704 -0.055231
vn 0.984144 -0.168339 -0.055880
vn 0.000000 0.998142 -0.060929
vn -0.983580 -0.169454 -0.062102
vn -0.835963 0.547769 -0.033372
vn -0.605911 -0.794053 -0.048492
vn 0.606467 -0.794739 -0.024244
vn 0.474937 0.878387 0.053581
vn 0.983581 -0.169444 0.062101
vn 0.000000 0.999536 0.030464
vn -0.984143 -0.168348 0.055879
vn -0.834564 0.546852 0.066742
vn -0.606451 -0.794751 0.024244
vn 0.605925 -0.794042 0.048492
vn 0.474647 0.879499 0.034524
vn 0.985153 -0.168693 0.031871
vn 0.000000 0.998790 0.049176
vn -0.984672 -0.169644 0.040526
vn -0.836409 0.548054 0.007514
vn -0.606154 -0.794384 0.039136
vn 0.606621 -0.794972 0.005493
vn 0.623201 0.780929 -0.042075
vn 0.890620 -0.452870 -0.041295
vn 0.000000 0.999375 -0.035351
vn -0.990358 0.130702 -0.045921
vn -0.835810 0.547649 -0.038750
vn -0.606380 -0.794678 -0.028114
vn 0.606399 -0.794663 -0.028110
vn 0.000000 0.000000 -1.000000
vn 0.969573 -0.241842 0.037949
vn -0.004159 -0.989086 -0.147279
vn -0.005149 -0.998223 0.059370
vn 0.995006 -0.092629 -0.037184
vn -0.003473 -0.827147 -0.561975
vn 0.987685 -0.112082 -0.109157
vn 0.979144 -0.146340 -0.140934
vn -0.002447 -0.976168 -0.217003
vn 0.966999 -0.219878 -0.128708
vn 0.810223 -0.581764 -0.071334
vn 0.995271 -0.097125 0.001374
vn -0.000004 -0.999203 -0.039911
vn 0.998421 0.055964 0.004768
vn 0.981261 -0.192681 0.000000
vn 0.000000 0.986557 0.163418
vn 0.000000 0.994818 0.101672
vn -0.971393 -0.234614 0.036765
vn -0.995319 -0.089699 -0.035973
vn -0.980432 -0.141794 -0.136556
vn -0.988454 -0.108566 -0.105702
vn -0.814063 -0.576374 -0.071369
vn -0.969522 -0.210220 -0.125839
vn -0.995271 -0.097125 0.001374
vn -0.998421 0.055964 0.004768
vn -0.981262 -0.192680 -0.000001
vn 0.000000 0.803374 0.595474
vn 0.000000 0.948213 -0.317636
vn 0.000000 0.995092 0.098956
vn 0.000000 0.736740 0.676176
vn 0.000000 0.608444 0.793597
vn 0.000000 0.701062 0.713100
vn 0.000000 0.549827 0.835278
vn 0.000000 0.875313 0.483556
vn 0.000000 0.826218 0.563350
# 172 normals

g bksword.JPG
usemtl bksword.JPG
s 1
f 1/1/1 2/2/2 3/3/3
f 4/4/4 3/3/3 2/2/2
f 5/5/5 6/6/6 7/7/7
f 8/8/8 7/7/7 6/6/6
f 9/9/9 10/9/10 11/10/11
f 12/11/12 13/12/12 14/13/12
f 15/14/12 14/13/12 13/12/12
f 16/15/13 17/16/14 18/17/15
f 18/17/15 17/16/14 19/18/16
f 19/18/16 17/16/14 20/19/17
f 21/20/18 22/21/19 23/22/20
f 24/23/20 23/22/20 22/21/19
f 25/24/21 26/25/22 27/26/23
f 28/27/24 27/26/23 26/25/22
f 29/28/25 30/29/26 31/30/27
f 32/31/28 31/30/27 30/29/26
f 33/32/20 34/33/20 35/34/20
f 36/35/29 37/36/29 38/37/30
f 39/38/31 38/37/30 37/36/29
f 40/39/32 41/40/33 42/41/34
f 43/36/34 42/41/34 41/40/33
f 27/26/23 28/27/24 40/39/32
f 41/40/33 40/39/32 28/27/24
f 44/42/35 45/43/35 46/44/35
f 47/45/35 46/44/35 45/43/35
f 48/46/36 49/47/37 50/48/38
f 50/48/38 49/47/37 51/49/39
f 51/49/39 49/47/37 52/50/40
f 53/51/41 52/50/40 54/52/42
f 54/52/42 52/50/40 55/53/43
f 52/50/40 49/47/37 55/53/43
f 56/52/44 57/51/45 58/54/46
f 59/55/47 58/54/46 57/51/45
f 57/51/45 56/52/44 60/50/48
f 48/46/36 61/48/49 49/47/37
f 61/48/49 62/49/50 49/47/37
f 62/49/50 60/50/48 49/47/37
f 49/47/37 60/50/48 63/53/51
f 60/50/48 56/52/44 63/53/51
f 64/56/52 65/57/53 66/58/54
f 67/2/55 1/1/1 68/4/56
f 3/3/3 68/4/56 1/1/1
f 5/5/5 69/6/57 70/59/58
f 71/60/34 70/59/58 69/6/57
f 3/3/3 4/4/4 72/61/29
f 73/62/59 72/61/29 4/4/4
f 3/3/3 72/61/29 68/4/56
f 74/62/60 68/4/56 72/61/29
f 75/63/61 1/1/1 6/6/6
f 67/2/55 6/6/6 1/1/1
f 76/64/62 77/65/62 25/24/21
f 26/25/22 25/24/21 77/65/62
f 78/66/63 7/7/7 8/8/8
f 79/67/64 80/68/65 78/66/63
f 78/66/63 80/68/65 7/7/7
f 20/19/17 81/8/66 19/18/16
f 19/18/16 81/8/66 82/69/67
f 81/8/66 7/7/7 82/69/67
f 7/7/7 80/68/65 82/69/67
f 83/70/68 84/71/69 85/72/70
f 86/73/70 85/72/70 84/71/69
f 64/56/52 66/58/54 83/70/68
f 84/71/69 83/70/68 66/58/54
f 19/18/16 87/18/71 18/17/15
f 88/17/72 18/17/15 87/18/71
f 89/74/73 90/75/74 91/76/75
f 92/77/76 93/78/77 94/79/78
f 95/80/79 94/79/78 93/78/77
f 89/74/73 91/76/75 92/77/76
f 93/78/77 92/77/76 91/76/75
f 94/79/78 95/80/79 96/81/80
f 97/82/80 96/81/80 95/80/79
f 18/17/15 88/17/72 53/51/41
f 57/51/45 53/51/41 88/17/72
f 55/53/43 63/53/51 54/52/42
f 56/52/44 54/52/42 63/53/51
f 98/83/81 99/84/82 63/53/51
f 49/47/37 63/53/51 99/84/82
f 49/47/37 99/84/82 55/53/43
f 100/83/83 55/53/43 99/84/82
f 55/53/43 100/83/83 63/53/51
f 98/83/81 63/53/51 100/83/83
f 101/85/84 102/85/85 9/9/9
f 10/9/10 9/9/9 102/85/85
f 98/83/81 100/83/83 101/85/84
f 102/85/85 101/85/84 100/83/83
f 103/55/86 53/51/41 104/54/87
f 54/52/42 104/54/87 53/51/41
f 105/15/88 106/86/89 88/17/72
f 88/17/72 106/86/89 57/51/45
f 57/51/45 106/86/89 59/55/47
f 103/55/86 107/86/90 53/51/41
f 53/51/41 107/86/90 18/17/15
f 18/17/15 107/86/90 16/15/13
f 108/19/91 109/16/92 87/18/71
f 87/18/71 109/16/92 88/17/72
f 88/17/72 109/16/92 105/15/88
f 38/37/30 39/38/31 29/28/25
f 30/29/26 29/28/25 39/38/31
f 31/30/27 32/31/28 21/20/18
f 22/21/19 21/20/18 32/31/28
f 98/83/81 101/85/84 99/84/82
f 110/87/93 99/84/82 101/85/84
f 100/83/83 99/84/82 102/85/85
f 110/87/93 102/85/85 99/84/82
f 101/85/84 9/9/9 110/87/93
f 11/10/11 110/87/93 9/9/9
f 102/85/85 110/87/93 10/9/10
f 11/10/11 10/9/10 110/87/93
f 79/67/64 78/66/63 111/68/94
f 111/68/94 78/66/63 112/69/95
f 112/69/95 78/66/63 87/18/71
f 87/18/71 78/66/63 108/19/91
f 108/19/91 78/66/63 8/8/8
f 2/2/2 1/1/1 69/6/57
f 75/63/61 69/6/57 1/1/1
f 71/60/34 75/63/61 6/6/6
f 75/63/61 71/60/34 69/6/57
f 71/60/34 6/6/6 70/59/58
f 5/5/5 70/59/58 6/6/6
f 81/8/66 69/6/57 7/7/7
f 5/5/5 7/7/7 69/6/57
f 113/88/96 114/89/97 115/90/98
f 116/91/99 115/90/98 114/89/97
f 117/92/100 113/88/96 118/93/101
f 115/90/98 118/93/101 113/88/96
f 119/94/102 120/95/103 121/96/104
f 122/97/105 121/96/104 120/95/103
f 123/98/106 119/94/102 124/99/107
f 121/96/104 124/99/107 119/94/102
f 114/89/97 125/100/108 116/91/99
f 126/101/109 116/91/99 125/100/108
f 115/90/98 116/91/99 127/102/110
f 128/103/111 127/102/110 116/91/99
f 118/93/101 115/90/98 129/104/112
f 127/102/110 129/104/112 115/90/98
f 121/96/104 122/97/105 130/105/113
f 131/106/114 130/105/113 122/97/105
f 124/99/107 121/96/104 132/107/115
f 130/105/113 132/107/115 121/96/104
f 116/91/99 126/101/109 128/103/111
f 133/108/116 128/103/111 126/101/109
f 127/102/110 128/103/111 134/109/117
f 135/110/118 134/109/117 128/103/111
f 129/104/112 127/102/110 136/111/119
f 134/109/117 136/111/119 127/102/110
f 130/105/113 131/106/114 137/112/120
f 138/113/121 137/112/120 131/106/114
f 132/107/115 130/105/113 139/114/122
f 137/112/120 139/114/122 130/105/113
f 128/103/111 133/108/116 135/110/118
f 140/115/123 135/110/118 133/108/116
f 134/109/117 135/110/118 141/116/124
f 142/117/125 141/116/124 135/110/118
f 136/111/119 134/109/117 143/118/126
f 141/116/124 143/118/126 134/109/117
f 137/112/120 138/113/121 144/119/127
f 145/120/128 144/119/127 138/113/121
f 139/114/122 137/112/120 146/121/129
f 144/119/127 146/121/129 137/112/120
f 135/110/118 140/115/123 142/117/125
f 147/122/130 142/117/125 140/115/123
f 141/116/124 142/117/125 148/123/131
f 149/124/132 148/123/131 142/117/125
f 143/118/126 141/116/124 150/125/133
f 148/123/131 150/125/133 141/116/124
f 144/119/127 145/120/128 151/126/134
f 152/127/135 151/126/134 145/120/128
f 146/121/129 144/119/127 153/128/136
f 151/126/134 153/128/136 144/119/127
f 142/117/125 147/122/130 149/124/132
f 154/129/137 149/124/132 147/122/130
f 155/130/138 156/131/138 157/132/138
f 157/132/138 156/131/138 158/133/138
f 156/131/138 159/134/138 158/133/138
f 160/135/139 161/136/140 162/137/141
f 161/136/140 160/135/139 163/138/142
f 164/139/143 165/140/144 166/141/145
f 161/136/140 165/140/144 164/139/143
f 163/138/142 165/140/144 161/136/140
f 167/142/146 168/143/147 169/144/148
f 164/139/143 168/143/147 167/142/146
f 166/141/145 168/143/147 164/139/143
f 170/145/149 171/146/150 172/147/64
f 173/148/151 171/146/150 170/145/149
f 167/142/146 171/146/150 173/148/151
f 169/144/148 171/146/150 167/142/146
f 174/149/152 171/146/150 169/144/148
f 175/150/20 176/151/153 177/152/20
f 176/151/153 175/150/20 178/153/154
f 162/137/141 161/136/140 179/135/155
f 180/138/156 179/135/155 161/136/140
f 181/141/157 182/140/158 164/139/143
f 164/139/143 182/140/158 161/136/140
f 161/136/140 182/140/158 180/138/156
f 183/144/159 184/143/160 167/142/146
f 167/142/146 184/143/160 164/139/143
f 164/139/143 184/143/160 181/141/157
f 172/147/64 171/146/150 185/145/161
f 185/145/161 171/146/150 186/148/162
f 186/148/162 171/146/150 167/142/146
f 167/142/146 171/146/150 183/144/159
f 183/144/159 171/146/150 187/149/163
f 188/154/164 189/155/165 190/156/166
f 191/157/165 190/156/166 189/155/165
f 192/158/167 193/159/168 194/160/169
f 195/161/170 194/160/169 193/159/168
f 193/159/168 188/154/164 195/161/170
f 190/156/166 195/161/170 188/154/164
f 178/153/154 196/162/171 176/151/153
f 197/163/172 176/151/153 196/162/171
f 196/162/171 192/158/167 197/163/172
f 194/160/169 197/163/172 192/158/167
f 175/150/20 178/153/154 177/152/20
f 176/151/153 177/152/20 178/153/154
# 215 triangles in group

# 215 triangles total

